<svg width="57" height="56" viewBox="0 0 57 56" fill="none" xmlns="http://www.w3.org/2000/svg">
<path d="M16.5613 36.6061C16.7495 36.2371 16.6029 35.7854 16.2339 35.5972C15.8649 35.409 15.4132 35.5556 15.2251 35.9246L16.5613 36.6061ZM9.58496 48.6347L8.91683 48.294C8.7822 48.558 8.81563 48.8765 9.00214 49.1068C9.18865 49.3371 9.49327 49.4359 9.77947 49.3591L9.58496 48.6347ZM18.1414 46.3371L18.8152 46.0077C18.6576 45.6852 18.2936 45.5197 17.9469 45.6127L18.1414 46.3371ZM21.765 53.7489L21.0912 54.0783C21.217 54.3356 21.4783 54.4988 21.7648 54.4989C22.0512 54.4989 22.3127 54.3359 22.4386 54.0786L21.765 53.7489ZM27.9085 41.1983L28.5919 40.8893C28.4722 40.6246 28.2104 40.4528 27.92 40.4484C27.6295 40.4439 27.3626 40.6076 27.2349 40.8685L27.9085 41.1983ZM33.5826 53.7489L32.8992 54.0578C33.0171 54.3187 33.2733 54.4896 33.5594 54.4985C33.8455 54.5074 34.1117 54.3526 34.2456 54.0995L33.5826 53.7489ZM37.6426 46.0736L37.8213 45.3451C37.4873 45.2632 37.1404 45.4189 36.9796 45.7229L37.6426 46.0736ZM45.9355 48.1077L45.7569 48.8361C46.038 48.905 46.3338 48.806 46.5167 48.5817C46.6997 48.3574 46.7372 48.0478 46.6132 47.7862L45.9355 48.1077ZM40.8896 35.7215C40.7121 35.3473 40.2648 35.1878 39.8906 35.3654C39.5163 35.5429 39.3569 35.9902 39.5344 36.3644L40.8896 35.7215ZM15.2251 35.9246L8.91683 48.294L10.2531 48.9755L16.5613 36.6061L15.2251 35.9246ZM9.77947 49.3591L18.3359 47.0614L17.9469 45.6127L9.39046 47.9104L9.77947 49.3591ZM17.4676 46.6665L21.0912 54.0783L22.4387 53.4194L18.8152 46.0077L17.4676 46.6665ZM22.4386 54.0786L28.5821 41.528L27.2349 40.8685L21.0913 53.4191L22.4386 54.0786ZM27.2251 41.5072L32.8992 54.0578L34.266 53.4399L28.5919 40.8893L27.2251 41.5072ZM34.2456 54.0995L38.3056 46.4242L36.9796 45.7229L32.9196 53.3982L34.2456 54.0995ZM37.4639 46.802L45.7569 48.8361L46.1142 47.3793L37.8213 45.3451L37.4639 46.802ZM46.6132 47.7862L40.8896 35.7215L39.5344 36.3644L45.2579 48.4291L46.6132 47.7862Z" fill="#00A0E3"/>
<path d="M47.7708 23.0488C47.8696 21.7971 46.7743 20.9077 46.6672 19.7547C46.5602 18.6018 47.4908 17.523 47.1449 16.3041C46.799 15.0853 45.5884 14.6571 45.1272 13.6359C44.6661 12.6147 45.1272 11.363 44.4272 10.3418C43.7272 9.32061 42.459 9.28767 41.7096 8.48885C41.5449 8.31591 41.619 8.01944 41.5366 7.78885C41.4931 7.65116 41.4408 7.51638 41.3802 7.38532C41.1397 6.84589 40.7955 6.35901 40.3672 5.95238L40.0213 5.65591C39.0743 4.93944 37.7896 5.29356 36.8425 4.7665C35.8955 4.23944 35.459 3.00414 34.3308 2.61709C33.2025 2.23003 32.0414 3.02885 30.9049 2.84767C29.7684 2.6665 28.9613 1.5465 27.7261 1.55473C26.4908 1.56297 25.7002 2.69944 24.5637 2.90532C23.4272 3.1112 22.299 2.31238 21.1296 2.73238C19.9602 3.15238 19.6143 4.37944 18.659 4.94767C17.7037 5.51591 16.3778 5.15356 15.4802 5.87003C14.5825 6.5865 14.5908 7.90414 13.8331 8.7112C13.0755 9.51826 11.799 9.62532 11.1484 10.6218C10.4978 11.6183 10.959 12.8783 10.5143 13.9159C10.0696 14.9536 8.86723 15.4477 8.53782 16.6171C8.2084 17.7865 9.1637 18.89 9.07311 20.0512C8.98252 21.2124 7.91193 22.1183 8.02723 23.3453C8.14252 24.5724 9.31193 25.2559 9.60841 26.3512C9.90488 27.4465 9.24605 28.6653 9.78958 29.7524C10.3331 30.8394 11.5602 31.1194 12.1778 32.0336C12.7955 32.9477 12.5649 34.2406 13.3802 35.1053C14.1955 35.97 15.4802 35.83 16.3531 36.4971C17.2261 37.1641 17.4237 38.4653 18.4696 39.0253C19.5155 39.5853 20.7508 39.0253 21.8213 39.3877C22.8919 39.75 23.4684 40.9524 24.6955 41.15C25.9225 41.3477 26.9108 40.3265 28.0802 40.3265C29.2496 40.3265 30.2378 41.323 31.4814 41.1006C32.7249 40.8783 33.2684 39.6841 34.3225 39.3053C35.3766 38.9265 36.6037 39.4783 37.6166 38.8853C38.6296 38.2924 38.8355 37.0077 39.7002 36.3241C40.5649 35.6406 41.8496 35.7559 42.6484 34.883C43.4472 34.01 43.2002 32.7171 43.8014 31.7947C44.4025 30.8724 45.679 30.5677 46.1566 29.4724C46.6343 28.3771 45.959 27.1747 46.2308 26.0712C46.5025 24.9677 47.6719 24.2677 47.7708 23.0488Z" stroke="#00A0E3" stroke-width="1.5" stroke-miterlimit="10"/>
<path d="M27.9067 34.034C34.8973 34.034 40.5643 28.367 40.5643 21.3764C40.5643 14.3858 34.8973 8.71875 27.9067 8.71875C20.916 8.71875 15.249 14.3858 15.249 21.3764C15.249 28.367 20.916 34.034 27.9067 34.034Z" stroke="#00A0E3" stroke-width="1.5" stroke-miterlimit="10"/>
<path d="M22.295 19.9584C22.0021 19.6655 21.5272 19.6655 21.2343 19.9584C20.9414 20.2513 20.9414 20.7262 21.2343 21.0191L22.295 19.9584ZM26.4835 25.2076L25.9531 25.7379C26.0938 25.8786 26.2846 25.9576 26.4835 25.9576C26.6824 25.9576 26.8731 25.8786 27.0138 25.7379L26.4835 25.2076ZM34.5573 18.1944C34.8502 17.9015 34.8502 17.4266 34.5573 17.1337C34.2644 16.8408 33.7896 16.8408 33.4967 17.1337L34.5573 18.1944ZM21.2343 21.0191L25.9531 25.7379L27.0138 24.6773L22.295 19.9584L21.2343 21.0191ZM27.0138 25.7379L34.5573 18.1944L33.4967 17.1337L25.9531 24.6773L27.0138 25.7379Z" fill="#00A0E3"/>
</svg>
