<svg width="24" height="24" viewBox="0 0 24 24" fill="none" xmlns="http://www.w3.org/2000/svg">
<path fill-rule="evenodd" clip-rule="evenodd" d="M6.65625 5.3335C6.65625 4.78121 7.05422 4.3335 7.54514 4.3335H21.7674C22.2583 4.3335 22.6562 4.78121 22.6562 5.3335C22.6562 5.88578 22.2583 6.3335 21.7674 6.3335H7.54514C7.05422 6.3335 6.65625 5.88578 6.65625 5.3335Z" fill="#A3A8AB"/>
<path d="M2.66146 6.66667C3.39784 6.66667 3.99479 6.06971 3.99479 5.33333C3.99479 4.59695 3.39784 4 2.66146 4C1.92508 4 1.32812 4.59695 1.32812 5.33333C1.32812 6.06971 1.92508 6.66667 2.66146 6.66667Z" fill="#A3A8AB"/>
<path fill-rule="evenodd" clip-rule="evenodd" d="M6.65625 12.0002C6.65625 11.4479 7.05422 11.0002 7.54514 11.0002H21.7674C22.2583 11.0002 22.6562 11.4479 22.6562 12.0002C22.6562 12.5525 22.2583 13.0002 21.7674 13.0002H7.54514C7.05422 13.0002 6.65625 12.5525 6.65625 12.0002Z" fill="#A3A8AB"/>
<path d="M2.66146 13.3334C3.39784 13.3334 3.99479 12.7364 3.99479 12C3.99479 11.2636 3.39784 10.6667 2.66146 10.6667C1.92508 10.6667 1.32812 11.2636 1.32812 12C1.32812 12.7364 1.92508 13.3334 2.66146 13.3334Z" fill="#A3A8AB"/>
<path fill-rule="evenodd" clip-rule="evenodd" d="M6.65625 19.3335C6.65625 18.7812 7.05422 18.3335 7.54514 18.3335H21.7674C22.2583 18.3335 22.6562 18.7812 22.6562 19.3335C22.6562 19.8858 22.2583 20.3335 21.7674 20.3335H7.54514C7.05422 20.3335 6.65625 19.8858 6.65625 19.3335Z" fill="#A3A8AB"/>
<path d="M2.66146 20.6667C3.39784 20.6667 3.99479 20.0697 3.99479 19.3333C3.99479 18.597 3.39784 18 2.66146 18C1.92508 18 1.32812 18.597 1.32812 19.3333C1.32812 20.0697 1.92508 20.6667 2.66146 20.6667Z" fill="#A3A8AB"/>
</svg>
