<svg width="16" height="16" viewBox="0 0 16 16" fill="none" xmlns="http://www.w3.org/2000/svg">
<path d="M12.8346 6.94379C12.8346 8.57465 11.8605 10.3073 10.6889 11.6691C10.1106 12.3414 9.50378 12.9 8.9858 13.2862C8.72634 13.4796 8.49726 13.6237 8.31183 13.717C8.2193 13.7636 8.1439 13.7944 8.0858 13.8129C8.02488 13.8322 7.99925 13.8327 8.0013 13.8327V14.8327C8.25546 14.8327 8.52531 14.7292 8.76161 14.6102C9.01368 14.4832 9.29293 14.3045 9.58347 14.0879C10.1655 13.654 10.8253 13.0439 11.447 12.3213C12.6755 10.8933 13.8346 8.93148 13.8346 6.94379H12.8346ZM8.0013 13.8327C8.00336 13.8327 7.97773 13.8322 7.9168 13.8129C7.85871 13.7944 7.78331 13.7636 7.69078 13.717C7.50534 13.6237 7.27626 13.4796 7.01681 13.2862C6.49883 12.9 5.892 12.3414 5.31368 11.6691C4.14216 10.3073 3.16797 8.57465 3.16797 6.94379H2.16797C2.16797 8.93148 3.32712 10.8933 4.55559 12.3213C5.17727 13.0439 5.83711 13.654 6.41913 14.0879C6.70967 14.3045 6.98893 14.4832 7.24099 14.6102C7.47729 14.7292 7.74714 14.8327 8.0013 14.8327V13.8327ZM3.16797 6.94379C3.16797 4.31002 5.32698 2.16602 8.0013 2.16602V1.16602C4.78459 1.16602 2.16797 3.74789 2.16797 6.94379H3.16797ZM8.0013 2.16602C10.6756 2.16602 12.8346 4.31002 12.8346 6.94379H13.8346C13.8346 3.74789 11.218 1.16602 8.0013 1.16602V2.16602Z" fill="#064E8C"/>
<circle r="2" transform="matrix(-1 0 0 1 8 6.66602)" stroke="#064E8C"/>
</svg>
