<svg width="20" height="20" viewBox="0 0 20 20" fill="none" xmlns="http://www.w3.org/2000/svg">
<path d="M15.6934 11.8457C15.9798 11.8457 16.2533 11.901 16.5137 12.0117C16.7806 12.1159 17.015 12.2689 17.2168 12.4707L19.3652 14.6191C19.5671 14.821 19.7201 15.0553 19.8242 15.3223C19.9349 15.5827 19.9902 15.8561 19.9902 16.1426C19.9902 16.429 19.9349 16.7057 19.8242 16.9727C19.7201 17.2331 19.5671 17.4642 19.3652 17.666L19.2285 17.8027C18.877 18.1543 18.5547 18.4668 18.2617 18.7402C17.9688 19.0137 17.6628 19.2448 17.3438 19.4336C17.0247 19.6159 16.6699 19.7559 16.2793 19.8535C15.8887 19.9512 15.4232 20 14.8828 20C14.069 20 13.2324 19.873 12.373 19.6191C11.5137 19.3652 10.6576 19.0137 9.80469 18.5645C8.95833 18.1152 8.125 17.5814 7.30469 16.9629C6.49089 16.3444 5.7194 15.6706 4.99023 14.9414C4.26758 14.2057 3.60026 13.431 2.98828 12.6172C2.3763 11.7969 1.84896 10.9635 1.40625 10.1172C0.963542 9.26432 0.61849 8.41471 0.371094 7.56836C0.123698 6.722 0 5.90169 0 5.10742C0 4.56706 0.0455729 4.10482 0.136719 3.7207C0.234375 3.33659 0.374349 2.98503 0.556641 2.66602C0.745443 2.34701 0.973307 2.04427 1.24023 1.75781C1.51367 1.46484 1.82617 1.14258 2.17773 0.791016L2.33398 0.634766C2.53581 0.432943 2.76693 0.276693 3.02734 0.166016C3.28776 0.0553385 3.56445 0 3.85742 0C4.14388 0 4.41732 0.0553385 4.67773 0.166016C4.94466 0.276693 5.17904 0.432943 5.38086 0.634766L7.5293 2.7832C7.73112 2.98503 7.88411 3.2194 7.98828 3.48633C8.09896 3.74674 8.1543 4.02018 8.1543 4.30664C8.1543 4.5931 8.10547 4.85026 8.00781 5.07812C7.91016 5.29948 7.78971 5.5013 7.64648 5.68359C7.50325 5.86589 7.34375 6.0319 7.16797 6.18164C6.9987 6.33138 6.84245 6.47786 6.69922 6.62109C6.55599 6.76432 6.43555 6.91081 6.33789 7.06055C6.24023 7.20378 6.19141 7.36003 6.19141 7.5293C6.19141 7.77669 6.2793 7.98828 6.45508 8.16406L11.8359 13.5449C12.0117 13.7207 12.2233 13.8086 12.4707 13.8086C12.64 13.8086 12.7962 13.7598 12.9395 13.6621C13.0892 13.5645 13.2357 13.444 13.3789 13.3008C13.5221 13.1576 13.6686 13.0013 13.8184 12.832C13.9681 12.6562 14.1341 12.4967 14.3164 12.3535C14.4987 12.2103 14.7005 12.0898 14.9219 11.9922C15.1497 11.8945 15.4069 11.8457 15.6934 11.8457ZM14.8828 18.75C15.3516 18.75 15.7422 18.7077 16.0547 18.623C16.3737 18.5319 16.6602 18.4049 16.9141 18.2422C17.168 18.0729 17.4154 17.8646 17.6562 17.6172C17.8971 17.3698 18.1738 17.0898 18.4863 16.7773C18.6621 16.6016 18.75 16.39 18.75 16.1426C18.75 16.0254 18.7012 15.8887 18.6035 15.7324C18.5124 15.5697 18.3919 15.4004 18.2422 15.2246C18.0924 15.0488 17.9232 14.8698 17.7344 14.6875C17.5521 14.4987 17.3698 14.3229 17.1875 14.1602C17.0117 13.9909 16.8457 13.8379 16.6895 13.7012C16.5397 13.5579 16.4225 13.444 16.3379 13.3594C16.1621 13.1836 15.9473 13.0957 15.6934 13.0957C15.5241 13.0957 15.3678 13.1445 15.2246 13.2422C15.0814 13.3398 14.9382 13.4603 14.7949 13.6035C14.6517 13.7467 14.502 13.9062 14.3457 14.082C14.196 14.2513 14.0299 14.4076 13.8477 14.5508C13.6654 14.694 13.4603 14.8145 13.2324 14.9121C13.0111 15.0098 12.7572 15.0586 12.4707 15.0586C12.1842 15.0586 11.9076 15.0065 11.6406 14.9023C11.3802 14.7917 11.1491 14.6354 10.9473 14.4336L5.56641 9.05273C5.36458 8.85091 5.20833 8.61979 5.09766 8.35938C4.99349 8.09245 4.94141 7.81575 4.94141 7.5293C4.94141 7.24284 4.99023 6.98893 5.08789 6.76758C5.18555 6.53971 5.30599 6.33464 5.44922 6.15234C5.59245 5.97005 5.7487 5.80404 5.91797 5.6543C6.09375 5.49805 6.25325 5.34831 6.39648 5.20508C6.53971 5.06185 6.66016 4.91862 6.75781 4.77539C6.85547 4.63216 6.9043 4.47591 6.9043 4.30664C6.9043 4.05273 6.81641 3.83789 6.64062 3.66211C6.55599 3.57747 6.44206 3.46029 6.29883 3.31055C6.16211 3.1543 6.00911 2.98828 5.83984 2.8125C5.67708 2.63021 5.5013 2.44792 5.3125 2.26562C5.13021 2.07682 4.95117 1.90755 4.77539 1.75781C4.59961 1.60807 4.43034 1.48763 4.26758 1.39648C4.11133 1.29883 3.97461 1.25 3.85742 1.25C3.61003 1.25 3.39844 1.33789 3.22266 1.51367C2.91016 1.82617 2.63021 2.10286 2.38281 2.34375C2.14193 2.58464 1.93359 2.83203 1.75781 3.08594C1.58854 3.33984 1.45833 3.6263 1.36719 3.94531C1.28255 4.25781 1.24023 4.64518 1.24023 5.10742C1.24023 5.83659 1.35742 6.58854 1.5918 7.36328C1.83268 8.13802 2.16146 8.91276 2.57812 9.6875C3.0013 10.4622 3.49935 11.2272 4.07227 11.9824C4.64518 12.7311 5.27018 13.4408 5.94727 14.1113C6.62435 14.7819 7.33724 15.4004 8.08594 15.9668C8.84115 16.5332 9.60286 17.0247 10.3711 17.4414C11.1458 17.8516 11.9141 18.1738 12.6758 18.4082C13.444 18.6361 14.1797 18.75 14.8828 18.75Z" fill="#00A0E3"/>
<path d="M14.8828 18.75C15.3516 18.75 15.7422 18.7077 16.0547 18.623C16.3737 18.5319 16.6602 18.4049 16.9141 18.2422C17.168 18.0729 17.4154 17.8646 17.6562 17.6172C17.8971 17.3698 18.1738 17.0898 18.4863 16.7773C18.6621 16.6016 18.75 16.39 18.75 16.1426C18.75 16.0254 18.7012 15.8887 18.6035 15.7324C18.5124 15.5697 18.3919 15.4004 18.2422 15.2246C18.0924 15.0488 17.9232 14.8698 17.7344 14.6875C17.5521 14.4987 17.3698 14.3229 17.1875 14.1602C17.0117 13.9909 16.8457 13.8379 16.6895 13.7012C16.5397 13.5579 16.4225 13.444 16.3379 13.3594C16.1621 13.1836 15.9473 13.0957 15.6934 13.0957C15.5241 13.0957 15.3678 13.1445 15.2246 13.2422C15.0814 13.3398 14.9382 13.4603 14.7949 13.6035C14.6517 13.7467 14.502 13.9062 14.3457 14.082C14.196 14.2513 14.0299 14.4076 13.8477 14.5508C13.6654 14.694 13.4603 14.8145 13.2324 14.9121C13.0111 15.0098 12.7572 15.0586 12.4707 15.0586C12.1842 15.0586 11.9076 15.0065 11.6406 14.9023C11.3802 14.7917 11.1491 14.6354 10.9473 14.4336L5.56641 9.05273C5.36458 8.85091 5.20833 8.61979 5.09766 8.35938C4.99349 8.09245 4.94141 7.81575 4.94141 7.5293C4.94141 7.24284 4.99023 6.98893 5.08789 6.76758C5.18555 6.53971 5.30599 6.33464 5.44922 6.15234C5.59245 5.97005 5.7487 5.80404 5.91797 5.6543C6.09375 5.49805 6.25325 5.34831 6.39648 5.20508C6.53971 5.06185 6.66016 4.91862 6.75781 4.77539C6.85547 4.63216 6.9043 4.47591 6.9043 4.30664C6.9043 4.05273 6.81641 3.83789 6.64062 3.66211C6.55599 3.57747 6.44206 3.46029 6.29883 3.31055C6.16211 3.1543 6.00911 2.98828 5.83984 2.8125C5.67708 2.63021 5.5013 2.44792 5.3125 2.26562C5.13021 2.07682 4.95117 1.90755 4.77539 1.75781C4.59961 1.60807 4.43034 1.48763 4.26758 1.39648C4.11133 1.29883 3.97461 1.25 3.85742 1.25C3.61003 1.25 3.39844 1.33789 3.22266 1.51367C2.91016 1.82617 2.63021 2.10286 2.38281 2.34375C2.14193 2.58464 1.93359 2.83203 1.75781 3.08594C1.58854 3.33984 1.45833 3.6263 1.36719 3.94531C1.28255 4.25781 1.24023 4.64518 1.24023 5.10742C1.24023 5.83659 1.35742 6.58854 1.5918 7.36328C1.83268 8.13802 2.16146 8.91276 2.57812 9.6875C3.0013 10.4622 3.49935 11.2272 4.07227 11.9824C4.64518 12.7311 5.27018 13.4408 5.94727 14.1113C6.62435 14.7819 7.33724 15.4004 8.08594 15.9668C8.84115 16.5332 9.60286 17.0247 10.3711 17.4414C11.1458 17.8516 11.9141 18.1738 12.6758 18.4082C13.444 18.6361 14.1797 18.75 14.8828 18.75Z" fill="#00A0E3"/>
</svg>
