<svg width="20" height="20" viewBox="0 0 20 20" fill="none" xmlns="http://www.w3.org/2000/svg">
<path d="M4.16797 17.3327V17.8327H5.16797V17.3327H4.16797ZM14.8346 17.3327V17.8327H15.8346V17.3327H14.8346ZM5.16797 17.3327V16.6658H4.16797V17.3327H5.16797ZM8.66797 13.166H11.3346V12.166H8.66797V13.166ZM14.8346 16.6658V17.3327H15.8346V16.6658H14.8346ZM11.3346 13.166C13.2677 13.166 14.8346 14.7329 14.8346 16.6658H15.8346C15.8346 14.1805 13.8199 12.166 11.3346 12.166V13.166ZM5.16797 16.6658C5.16797 14.7329 6.73494 13.166 8.66797 13.166V12.166C6.18272 12.166 4.16797 14.1805 4.16797 16.6658H5.16797ZM10.0013 4.16602C8.2524 4.16602 6.83463 5.58378 6.83463 7.33268H7.83463C7.83463 6.13607 8.80468 5.16602 10.0013 5.16602V4.16602ZM13.168 7.33268C13.168 5.58378 11.7502 4.16602 10.0013 4.16602V5.16602C11.1979 5.16602 12.168 6.13607 12.168 7.33268H13.168ZM10.0013 10.4993C11.7502 10.4993 13.168 9.08158 13.168 7.33268H12.168C12.168 8.5293 11.1979 9.49935 10.0013 9.49935V10.4993ZM10.0013 9.49935C8.80468 9.49935 7.83463 8.5293 7.83463 7.33268H6.83463C6.83463 9.08158 8.2524 10.4993 10.0013 10.4993V9.49935ZM10.0013 18.8327C5.12279 18.8327 1.16797 14.8779 1.16797 9.99935H0.167969C0.167969 15.4301 4.5705 19.8327 10.0013 19.8327V18.8327ZM18.8346 9.99935C18.8346 14.8779 14.8798 18.8327 10.0013 18.8327V19.8327C15.4321 19.8327 19.8346 15.4301 19.8346 9.99935H18.8346ZM10.0013 1.16602C14.8798 1.16602 18.8346 5.12083 18.8346 9.99935H19.8346C19.8346 4.56855 15.4321 0.166016 10.0013 0.166016V1.16602ZM10.0013 0.166016C4.5705 0.166016 0.167969 4.56855 0.167969 9.99935H1.16797C1.16797 5.12083 5.12279 1.16602 10.0013 1.16602V0.166016Z" fill="#064E8C"/>
</svg>
