<svg width="160" height="160" viewBox="0 0 160 160" fill="none" xmlns="http://www.w3.org/2000/svg">
<path fill-rule="evenodd" clip-rule="evenodd" d="M14.8376 20.2857C14.8376 11.2914 22.129 4 31.1233 4H129.78C138.774 4 146.066 11.2914 146.066 20.2857V47.2736H153.964C155.089 47.2736 156 48.185 156 49.3093V71.8555C156 75.2284 153.266 77.9627 149.893 77.9627H146.066V134.591C146.066 135.715 145.154 136.626 144.03 136.626H136.312V153.964C136.312 155.089 135.4 156 134.276 156H117.844C116.719 156 115.808 155.089 115.808 153.964V136.626H44.3726V153.964C44.3726 155.089 43.4611 156 42.3368 156H25.5434C24.4191 156 23.5077 155.089 23.5077 153.964V136.626H16.8733C15.749 136.626 14.8376 135.715 14.8376 134.591V77.9627H10.1071C6.73426 77.9627 4 75.2284 4 71.8555V49.3093C4 48.185 4.91142 47.2736 6.03571 47.2736H14.8376V20.2857ZM14.8376 48.6308H6.03571C5.66095 48.6308 5.35714 48.9346 5.35714 49.3093V71.8555C5.35714 74.4789 7.48379 76.6055 10.1071 76.6055H14.8376V48.6308ZM24.8649 136.626V153.964C24.8649 154.339 25.1687 154.643 25.5434 154.643H42.3368C42.7116 154.643 43.0154 154.339 43.0154 153.964V136.626H24.8649ZM117.165 136.626V153.964C117.165 154.339 117.469 154.643 117.844 154.643H134.276C134.651 154.643 134.955 154.339 134.955 153.964V136.626H117.165ZM146.066 76.6055H149.893C152.516 76.6055 154.643 74.4789 154.643 71.8555V49.3093C154.643 48.9346 154.339 48.6308 153.964 48.6308H146.066V76.6055ZM31.1233 5.35714C22.8785 5.35714 16.1948 12.0409 16.1948 20.2857V134.591C16.1948 134.966 16.4986 135.269 16.8733 135.269H144.03C144.405 135.269 144.708 134.966 144.708 134.591V20.2857C144.708 12.0409 138.025 5.35714 129.78 5.35714H31.1233ZM68.1226 16.8097C68.1226 16.4349 68.4264 16.1311 68.8011 16.1311H90.8376C91.2124 16.1311 91.5162 16.4349 91.5162 16.8097C91.5162 17.1844 91.2124 17.4882 90.8376 17.4882H68.8011C68.4264 17.4882 68.1226 17.1844 68.1226 16.8097ZM25.5434 29.8004C25.1687 29.8004 24.8649 30.1042 24.8649 30.479V90.0497C24.8649 90.4245 25.1687 90.7283 25.5434 90.7283H43.0809C43.0376 90.2963 43.0154 89.8582 43.0154 89.4152C43.0154 82.2421 48.8168 76.4245 55.9766 76.4245C63.1364 76.4245 68.9378 82.2421 68.9378 89.4152C68.9378 89.8582 68.9157 90.2963 68.8724 90.7283H79.2311V29.8004H25.5434ZM80.5883 29.8004V90.7283H134.276C134.651 90.7283 134.955 90.4245 134.955 90.0497V30.479C134.955 30.1042 134.651 29.8004 134.276 29.8004H80.5883ZM67.5076 90.7283C67.5559 90.2975 67.5807 89.8593 67.5807 89.4152C67.5807 82.9886 62.3838 77.7816 55.9766 77.7816C49.5694 77.7816 44.3726 82.9886 44.3726 89.4152C44.3726 89.8593 44.3974 90.2975 44.4456 90.7283H67.5076ZM23.5077 30.479C23.5077 29.3547 24.4191 28.4433 25.5434 28.4433H134.276C135.4 28.4433 136.312 29.3547 136.312 30.479V90.0497C136.312 91.174 135.4 92.0854 134.276 92.0854H25.5434C24.4191 92.0854 23.5077 91.174 23.5077 90.0497V30.479ZM108.421 37.8755C108.686 37.6109 109.116 37.6114 109.381 37.8767L126.721 55.2586C126.986 55.5239 126.985 55.9535 126.72 56.2182C126.454 56.4829 126.025 56.4824 125.76 56.2171L108.42 38.8352C108.155 38.5699 108.156 38.1402 108.421 37.8755ZM120.334 37.8837C120.595 37.6146 121.025 37.6078 121.294 37.8686L126.713 43.1194C126.982 43.3802 126.989 43.8098 126.728 44.0789C126.467 44.3481 126.037 44.3548 125.768 44.094L120.349 38.8433C120.08 38.5825 120.074 38.1529 120.334 37.8837ZM52.9499 105.257C52.9499 104.133 53.8613 103.221 54.9856 103.221H105.376C106.5 103.221 107.411 104.133 107.411 105.257V122.279C107.411 123.403 106.5 124.314 105.376 124.314H54.9856C53.8613 124.314 52.9499 123.403 52.9499 122.279V105.257ZM54.9856 104.579C54.6108 104.579 54.307 104.882 54.307 105.257V122.279C54.307 122.653 54.6108 122.957 54.9856 122.957H105.376C105.75 122.957 106.054 122.653 106.054 122.279V105.257C106.054 104.882 105.75 104.579 105.376 104.579H54.9856ZM33.9401 106.751C29.9271 106.751 26.6711 110.013 26.6711 114.039C26.6711 118.066 29.9271 121.328 33.9401 121.328C37.9532 121.328 41.2091 118.066 41.2091 114.039C41.2091 110.013 37.9532 106.751 33.9401 106.751ZM25.314 114.039C25.314 109.266 29.1745 105.394 33.9401 105.394C38.7058 105.394 42.5663 109.266 42.5663 114.039C42.5663 118.813 38.7058 122.685 33.9401 122.685C29.1745 122.685 25.314 118.813 25.314 114.039ZM126.06 106.751C122.047 106.751 118.791 110.013 118.791 114.039C118.791 118.066 122.047 121.328 126.06 121.328C130.073 121.328 133.329 118.066 133.329 114.039C133.329 110.013 130.073 106.751 126.06 106.751ZM117.434 114.039C117.434 109.266 121.294 105.394 126.06 105.394C130.825 105.394 134.686 109.266 134.686 114.039C134.686 118.813 130.825 122.685 126.06 122.685C121.294 122.685 117.434 118.813 117.434 114.039Z" fill="#00A0E3"/>
</svg>
