<svg width="25" height="24" viewBox="0 0 25 24" fill="none" xmlns="http://www.w3.org/2000/svg">
<path d="M2.9165 3.66675C2.9165 3.11446 3.36422 2.66675 3.9165 2.66675H10.0324C10.5847 2.66675 11.0324 3.11446 11.0324 3.66675V9.78269C11.0324 10.335 10.5847 10.7827 10.0324 10.7827H3.9165C3.36422 10.7827 2.9165 10.335 2.9165 9.78269V3.66675Z" stroke="#00A0E3"/>
<path d="M13.4672 3.66675C13.4672 3.11446 13.9149 2.66675 14.4672 2.66675H20.5832C21.1355 2.66675 21.5832 3.11446 21.5832 3.66675V9.78269C21.5832 10.335 21.1355 10.7827 20.5832 10.7827H14.4672C13.9149 10.7827 13.4672 10.335 13.4672 9.78269V3.66675Z" stroke="#00A0E3"/>
<path d="M13.4672 14.2175C13.4672 13.6652 13.9149 13.2175 14.4672 13.2175H20.5832C21.1355 13.2175 21.5832 13.6652 21.5832 14.2175V20.3334C21.5832 20.8857 21.1355 21.3334 20.5832 21.3334H14.4672C13.9149 21.3334 13.4672 20.8857 13.4672 20.3334V14.2175Z" stroke="#00A0E3"/>
<path d="M2.9165 14.2175C2.9165 13.6652 3.36422 13.2175 3.9165 13.2175H10.0324C10.5847 13.2175 11.0324 13.6652 11.0324 14.2175V20.3334C11.0324 20.8857 10.5847 21.3334 10.0324 21.3334H3.9165C3.36422 21.3334 2.9165 20.8857 2.9165 20.3334V14.2175Z" stroke="#00A0E3"/>
</svg>
