<svg width="27" height="27" viewBox="0 0 27 27" fill="none" xmlns="http://www.w3.org/2000/svg">
<path d="M6.92857 22.5357V21.7141C6.92857 18.9921 9.13517 16.7857 11.8571 16.7857H15.1429C17.8648 16.7857 20.0714 18.9921 20.0714 21.7141V22.5357M13.5 6.92857C11.6854 6.92857 10.2143 8.39964 10.2143 10.2143C10.2143 12.0289 11.6854 13.5 13.5 13.5C15.3147 13.5 16.7857 12.0289 16.7857 10.2143C16.7857 8.39964 15.3147 6.92857 13.5 6.92857ZM13.5 25C7.14873 25 2 19.8513 2 13.5C2 7.14873 7.14873 2 13.5 2C19.8513 2 25 7.14873 25 13.5C25 19.8513 19.8513 25 13.5 25Z" stroke="#064E8C" stroke-linecap="round"/>
</svg>
