<svg width="25" height="32" viewBox="0 0 25 32" fill="none" xmlns="http://www.w3.org/2000/svg">
<path d="M13.1662 7.76613C12.1374 6.3055 10.7657 5.07348 9.17801 4.2479C8.44135 3.85417 7.65387 3.56204 6.841 3.34612C6.42186 3.24451 6.00272 3.1556 5.57088 3.1048C5.17714 3.05399 4.7453 2.97779 4.35156 3.1175" stroke="white" stroke-miterlimit="10"/>
<path d="M19.555 4.81909C22.4509 6.05111 24.2544 9.01048 24.4069 11.8936C24.5339 14.2053 23.6575 18.0537 20.7489 18.168C20.0884 18.1934 19.4788 18.0283 18.8818 17.787C16.9513 17.0376 15.9733 14.7768 15.389 12.9605C15.1477 12.2112 14.9191 11.4491 14.6523 10.6997" stroke="white" stroke-miterlimit="10"/>
<path d="M1 3.68894L4.12449 2.16479L4.68334 3.38411L1.44454 4.89555L1 3.68894Z" stroke="white" stroke-miterlimit="10"/>
<path d="M16.457 3.33229L19.1624 5.52959L19.9752 4.47539L17.1683 2.25269L16.457 3.33229Z" stroke="white" stroke-miterlimit="10"/>
<path d="M19.0106 17.8895C18.8836 17.0258 19.6076 16.2637 20.4713 16.378C21.1825 16.4669 22.0716 16.251 22.9226 15.1714C24.0784 13.6981 24.6881 14.892 24.6627 15.7938C24.6627 16.1113 24.6627 16.378 24.5992 16.6067C24.3705 17.4195 23.1893 19.6168 20.0267 19.0326C19.4933 18.931 19.0868 18.4991 18.9979 17.9657C19.0233 17.9403 19.0233 17.9149 19.0106 17.8895Z" fill="white"/>
<path d="M3.73018 2.15246C3.62857 1.93654 3.56507 1.80953 3.56507 1.79682C3.53966 1.75872 3.33644 1.37769 2.8665 1.37769C2.65058 1.37769 2.39656 1.45389 2.11713 1.60631C1.31695 2.03815 1.13914 2.45729 1.10103 2.67321C1.08833 2.76212 1.11374 2.85102 1.13914 2.91453C1.17724 3.01614 1.30425 3.25746 1.36776 3.43528" stroke="white" stroke-miterlimit="10" stroke-linejoin="round"/>
<path d="M19.7823 4.17284C19.9474 3.98232 20.1252 3.7283 20.2903 3.57588C20.5444 3.34726 20.5698 2.92812 20.3538 2.6741C20.2268 2.53438 20.0617 2.36927 19.6299 2.06444C19.1853 1.74691 18.7916 1.56909 18.4741 1.56909C18.093 1.56909 17.9279 1.81041 17.9152 1.84852L17.8898 1.88662L17.5469 2.31846L17.5596 2.33116" stroke="white" stroke-miterlimit="10" stroke-linejoin="round"/>
<path d="M16.5456 3.54956L11.2746 10.1288C11.2492 10.1542 11.2365 10.1796 11.2111 10.205C11.0079 10.4336 10.2713 11.1576 9.31866 11.1576C8.36607 11.1576 7.5659 10.459 6.94354 9.06188C6.07986 7.11859 5.11457 5.0737 4.44141 3.65117" stroke="white" stroke-miterlimit="10"/>
<path d="M1.85156 4.83276C3.42651 9.15117 6.62721 19.0454 6.18266 24.1894C6.18266 24.291 6.08106 26.2597 6.08106 26.3105L5.92864 29.8033C5.91594 30.0954 6.08105 30.3621 6.34778 30.4638C6.83042 30.667 7.56709 30.8956 8.34186 30.8956C8.93882 30.8956 9.47227 30.7559 9.92951 30.4765C10.1327 30.3494 10.2597 30.1208 10.247 29.8795C10.247 29.7271 10.2343 29.5366 10.2216 29.3206C10.1073 26.9328 9.8279 21.3443 12.0887 14.9556C12.2792 14.4095 12.7111 13.5712 13.0286 13.0885C14.7433 10.5229 16.9533 7.3476 18.7695 5.2011" stroke="white" stroke-miterlimit="10"/>
</svg>
