<svg width="21" height="22" viewBox="0 0 21 22" fill="none" xmlns="http://www.w3.org/2000/svg">
<path d="M10.5 3.92383C6.38058 3.92383 3 7.30441 3 11.4238C3 12.7834 3.36655 14.1069 4.06167 15.2648L3 18.9238L6.65902 17.8622C7.81693 18.5573 9.14044 18.9238 10.5 18.9238C14.6194 18.9238 18 15.5432 18 11.4238C18 7.30441 14.6194 3.92383 10.5 3.92383ZM15.1891 14.5928L14.8402 14.9417C14.3465 15.4354 13.2111 15.3963 12.4815 15.2554C10.0557 14.7869 7.22756 12.0456 6.68214 9.67162C6.41206 8.49563 6.56117 7.47321 6.95119 7.08308L7.30012 6.73415C7.49272 6.54166 7.8056 6.54189 7.99798 6.73415L9.39393 8.13022C9.48708 8.22337 9.53812 8.34686 9.53812 8.47903C9.53812 8.61121 9.48708 8.73481 9.39393 8.82762L9.04511 9.1769C8.66059 9.56233 8.66059 10.1884 9.04511 10.573L11.3503 12.8478C11.736 13.2335 12.3601 13.2339 12.7464 12.8478L13.0953 12.499C13.2754 12.3178 13.6119 12.3173 13.7935 12.499L15.1891 13.8946C15.3786 14.0833 15.3858 14.396 15.1891 14.5928Z" fill="#FAFAFA"/>
</svg>
