<svg width="21" height="22" viewBox="0 0 21 22" fill="none" xmlns="http://www.w3.org/2000/svg">
<path d="M19.2594 5.12563C18.5736 4.27202 17.3073 3.92383 14.8891 3.92383H6.11075C3.63714 3.92383 2.34943 4.29448 1.66616 5.20328C1 6.08935 1 7.39492 1 9.20185V12.6459C1 16.1465 1.7904 17.9238 6.11075 17.9238H14.8891C16.9862 17.9238 18.1483 17.6166 18.9001 16.8633C19.6711 16.0908 20 14.8295 20 12.6459V9.20185C20 7.29629 19.9485 5.98302 19.2594 5.12563ZM13.1981 11.3993L9.21186 13.5806C9.12275 13.6294 9.02529 13.6535 8.92796 13.6535C8.81776 13.6535 8.70781 13.6225 8.61042 13.5608C8.42704 13.4444 8.31506 13.2363 8.31506 13.0118V8.66333C8.31506 8.43924 8.42673 8.23133 8.60974 8.11492C8.79282 7.99851 9.02051 7.99056 9.21045 8.09387L13.1967 10.2611C13.3995 10.3713 13.5268 10.5905 13.5271 10.8297C13.5274 11.069 13.4006 11.2886 13.1981 11.3993Z" fill="#FAFAFA"/>
</svg>
