<svg width="57" height="56" viewBox="0 0 57 56" fill="none" xmlns="http://www.w3.org/2000/svg">
<path d="M16.8201 36.6061C17.0083 36.2371 16.8617 35.7854 16.4927 35.5972C16.1237 35.409 15.672 35.5556 15.4839 35.9246L16.8201 36.6061ZM9.84375 48.6347L9.17562 48.294C9.04099 48.558 9.07442 48.8765 9.26093 49.1068C9.44744 49.3371 9.75206 49.4359 10.0383 49.3591L9.84375 48.6347ZM18.4002 46.3371L19.074 46.0077C18.9164 45.6852 18.5524 45.5197 18.2057 45.6127L18.4002 46.3371ZM22.0238 53.7489L21.35 54.0783C21.4758 54.3356 21.7371 54.4988 22.0236 54.4989C22.31 54.4989 22.5714 54.3359 22.6974 54.0786L22.0238 53.7489ZM28.1673 41.1983L28.8507 40.8893C28.731 40.6246 28.4692 40.4528 28.1788 40.4484C27.8883 40.4439 27.6214 40.6076 27.4937 40.8685L28.1673 41.1983ZM33.8414 53.7489L33.158 54.0578C33.2759 54.3187 33.532 54.4896 33.8182 54.4985C34.1043 54.5074 34.3705 54.3526 34.5044 54.0995L33.8414 53.7489ZM37.9014 46.0736L38.0801 45.3451C37.7461 45.2632 37.3992 45.4189 37.2384 45.7229L37.9014 46.0736ZM46.1943 48.1077L46.0157 48.8361C46.2968 48.905 46.5926 48.806 46.7755 48.5817C46.9585 48.3574 46.996 48.0478 46.8719 47.7862L46.1943 48.1077ZM41.1484 35.7215C40.9709 35.3473 40.5236 35.1878 40.1493 35.3654C39.7751 35.5429 39.6157 35.9902 39.7932 36.3644L41.1484 35.7215ZM15.4839 35.9246L9.17562 48.294L10.5119 48.9755L16.8201 36.6061L15.4839 35.9246ZM10.0383 49.3591L18.5947 47.0614L18.2057 45.6127L9.64924 47.9104L10.0383 49.3591ZM17.7264 46.6665L21.35 54.0783L22.6975 53.4194L19.074 46.0077L17.7264 46.6665ZM22.6974 54.0786L28.8409 41.528L27.4937 40.8685L21.3501 53.4191L22.6974 54.0786ZM27.4839 41.5072L33.158 54.0578L34.5248 53.4399L28.8507 40.8893L27.4839 41.5072ZM34.5044 54.0995L38.5644 46.4242L37.2384 45.7229L33.1784 53.3982L34.5044 54.0995ZM37.7227 46.802L46.0157 48.8361L46.373 47.3793L38.0801 45.3451L37.7227 46.802ZM46.8719 47.7862L41.1484 35.7215L39.7932 36.3644L45.5167 48.4291L46.8719 47.7862Z" fill="#00A0E3"/>
<path d="M48.0296 23.0488C48.1284 21.7971 47.0331 20.9077 46.926 19.7547C46.819 18.6018 47.7496 17.523 47.4037 16.3041C47.0578 15.0853 45.8472 14.6571 45.386 13.6359C44.9248 12.6147 45.386 11.363 44.686 10.3418C43.986 9.32061 42.7178 9.28767 41.9684 8.48885C41.8037 8.31591 41.8778 8.01944 41.7954 7.78885C41.7519 7.65116 41.6996 7.51638 41.639 7.38532C41.3985 6.84589 41.0543 6.35901 40.626 5.95238L40.2801 5.65591C39.3331 4.93944 38.0484 5.29356 37.1013 4.7665C36.1543 4.23944 35.7178 3.00414 34.5896 2.61709C33.4613 2.23003 32.3001 3.02885 31.1637 2.84767C30.0272 2.6665 29.2201 1.5465 27.9848 1.55473C26.7495 1.56297 25.959 2.69944 24.8225 2.90532C23.686 3.1112 22.5578 2.31238 21.3884 2.73238C20.219 3.15238 19.8731 4.37944 18.9178 4.94767C17.9625 5.51591 16.6366 5.15356 15.739 5.87003C14.8413 6.5865 14.8495 7.90414 14.0919 8.7112C13.3343 9.51826 12.0578 9.62532 11.4072 10.6218C10.7566 11.6183 11.2178 12.8783 10.7731 13.9159C10.3284 14.9536 9.12602 15.4477 8.79661 16.6171C8.46719 17.7865 9.42249 18.89 9.3319 20.0512C9.24131 21.2124 8.17072 22.1183 8.28602 23.3453C8.40131 24.5724 9.57072 25.2559 9.86719 26.3512C10.1637 27.4465 9.50484 28.6653 10.0484 29.7524C10.5919 30.8394 11.819 31.1194 12.4366 32.0336C13.0543 32.9477 12.8237 34.2406 13.639 35.1053C14.4543 35.97 15.739 35.83 16.6119 36.4971C17.4848 37.1641 17.6825 38.4653 18.7284 39.0253C19.7743 39.5853 21.0096 39.0253 22.0801 39.3877C23.1507 39.75 23.7272 40.9524 24.9543 41.15C26.1813 41.3477 27.1696 40.3265 28.339 40.3265C29.5084 40.3265 30.4966 41.323 31.7401 41.1006C32.9837 40.8783 33.5272 39.6841 34.5813 39.3053C35.6354 38.9265 36.8625 39.4783 37.8754 38.8853C38.8884 38.2924 39.0943 37.0077 39.959 36.3241C40.8237 35.6406 42.1084 35.7559 42.9072 34.883C43.706 34.01 43.459 32.7171 44.0601 31.7947C44.6613 30.8724 45.9378 30.5677 46.4154 29.4724C46.8931 28.3771 46.2178 27.1747 46.4896 26.0712C46.7613 24.9677 47.9307 24.2677 48.0296 23.0488Z" stroke="#00A0E3" stroke-width="1.5" stroke-miterlimit="10"/>
<path d="M28.1655 34.034C35.1561 34.034 40.8231 28.367 40.8231 21.3764C40.8231 14.3858 35.1561 8.71875 28.1655 8.71875C21.1748 8.71875 15.5078 14.3858 15.5078 21.3764C15.5078 28.367 21.1748 34.034 28.1655 34.034Z" stroke="#00A0E3" stroke-width="1.5" stroke-miterlimit="10"/>
<path d="M22.5538 19.9584C22.2609 19.6655 21.786 19.6655 21.4931 19.9584C21.2002 20.2513 21.2002 20.7262 21.4931 21.0191L22.5538 19.9584ZM26.7423 25.2076L26.2119 25.7379C26.3526 25.8786 26.5433 25.9576 26.7423 25.9576C26.9412 25.9576 27.1319 25.8786 27.2726 25.7379L26.7423 25.2076ZM34.8161 18.1944C35.109 17.9015 35.109 17.4266 34.8161 17.1337C34.5232 16.8408 34.0484 16.8408 33.7555 17.1337L34.8161 18.1944ZM21.4931 21.0191L26.2119 25.7379L27.2726 24.6773L22.5538 19.9584L21.4931 21.0191ZM27.2726 25.7379L34.8161 18.1944L33.7555 17.1337L26.2119 24.6773L27.2726 25.7379Z" fill="#00A0E3"/>
</svg>
