<svg width="21" height="20" viewBox="0 0 21 20" fill="none" xmlns="http://www.w3.org/2000/svg">
<path d="M2.40625 6.47059H10.9062M15.8646 6.47059C15.8646 7.83506 14.7546 8.94118 13.3854 8.94118C12.0162 8.94118 10.9062 7.83506 10.9062 6.47059M15.8646 6.47059C15.8646 5.10612 14.7546 4 13.3854 4C12.0162 4 10.9062 5.10612 10.9062 6.47059M15.8646 6.47059H19.4062M19.4062 13.5294L10.9062 13.5294M5.94792 13.5294C5.94792 12.1649 7.05788 11.0588 8.42708 11.0588C9.79629 11.0588 10.9062 12.1649 10.9062 13.5294M5.94792 13.5294C5.94792 14.8939 7.05788 16 8.42708 16C9.79629 16 10.9062 14.8939 10.9062 13.5294M5.94792 13.5294H2.40625" stroke="#064E8C" stroke-width="1.5" stroke-linecap="round"/>
</svg>
