<svg width="56" height="56" viewBox="0 0 56 56" fill="none" xmlns="http://www.w3.org/2000/svg">
<path d="M8.65823 12V11.25C8.24401 11.25 7.90823 11.5858 7.90823 12H8.65823ZM37.8987 12H38.6487C38.6487 11.5858 38.3129 11.25 37.8987 11.25V12ZM8.65823 39.8261L8.24243 40.4503C8.36558 40.5323 8.51025 40.5761 8.65823 40.5761V39.8261ZM53.2152 39.8261V40.5761C53.3315 40.5761 53.4463 40.549 53.5504 40.497L53.2152 39.8261ZM40.6835 21.7391V20.9891C40.2693 20.9891 39.9335 21.3249 39.9335 21.7391H40.6835ZM40.6835 29.3913H39.9335C39.9335 29.8055 40.2693 30.1413 40.6835 30.1413V29.3913ZM50.4304 29.3913V30.1413C50.8446 30.1413 51.1804 29.8055 51.1804 29.3913H50.4304ZM1 15.4239C0.585786 15.4239 0.25 15.7597 0.25 16.1739C0.25 16.5881 0.585786 16.9239 1 16.9239V15.4239ZM14.2278 16.9239C14.6421 16.9239 14.9778 16.5881 14.9778 16.1739C14.9778 15.7597 14.6421 15.4239 14.2278 15.4239V16.9239ZM10.7468 20.2935C10.3326 20.2935 9.99684 20.6293 9.99684 21.0435C9.99684 21.4577 10.3326 21.7935 10.7468 21.7935V20.2935ZM23.2785 21.7935C23.6927 21.7935 24.0285 21.4577 24.0285 21.0435C24.0285 20.6293 23.6927 20.2935 23.2785 20.2935V21.7935ZM1.6962 20.2935C1.28199 20.2935 0.946203 20.6293 0.946203 21.0435C0.946203 21.4577 1.28199 21.7935 1.6962 21.7935V20.2935ZM7.96203 21.7935C8.37624 21.7935 8.71203 21.4577 8.71203 21.0435C8.71203 20.6293 8.37624 20.2935 7.96203 20.2935V21.7935ZM7.26582 24.4674C6.85161 24.4674 6.51582 24.8032 6.51582 25.2174C6.51582 25.6316 6.85161 25.9674 7.26582 25.9674V24.4674ZM20.4937 25.9674C20.9079 25.9674 21.2437 25.6316 21.2437 25.2174C21.2437 24.8032 20.9079 24.4674 20.4937 24.4674V25.9674ZM1 24.4674C0.585786 24.4674 0.25 24.8032 0.25 25.2174C0.25 25.6316 0.585786 25.9674 1 25.9674V24.4674ZM5.17722 25.9674C5.59143 25.9674 5.92722 25.6316 5.92722 25.2174C5.92722 24.8032 5.59143 24.4674 5.17722 24.4674V25.9674ZM3.08861 29.337C2.67439 29.337 2.33861 29.6727 2.33861 30.087C2.33861 30.5012 2.67439 30.837 3.08861 30.837V29.337ZM13.5316 30.837C13.9459 30.837 14.2816 30.5012 14.2816 30.087C14.2816 29.6727 13.9459 29.337 13.5316 29.337V30.837ZM16.3165 29.337C15.9022 29.337 15.5665 29.6727 15.5665 30.087C15.5665 30.5012 15.9022 30.837 16.3165 30.837V29.337ZM23.2785 30.837C23.6927 30.837 24.0285 30.5012 24.0285 30.087C24.0285 29.6727 23.6927 29.337 23.2785 29.337V30.837ZM54.2094 39.3294L53.8742 38.6584L54.2094 39.3294ZM7.81899 37.6025L7.40319 36.9783L7.81899 37.6025ZM7.81899 39.267L8.23478 38.6428L7.81899 39.267ZM8.65823 12.75H37.8987V11.25H8.65823V12.75ZM9.40823 37.0435V12H7.90823V37.0435H9.40823ZM8.24243 36.4193L7.40319 36.9783L8.23478 38.2267L9.07403 37.6677L8.24243 36.4193ZM7.40319 39.8912L8.24243 40.4503L9.07402 39.2019L8.23478 38.6428L7.40319 39.8912ZM37.1487 12V18.2609H38.6487V12H37.1487ZM37.1487 18.2609V37.0435H38.6487V18.2609H37.1487ZM37.8987 19.0109H47.2152V17.5109H37.8987V19.0109ZM52.4652 24.2609V37.0435H53.9652V24.2609H52.4652ZM39.9335 21.7391V29.3913H41.4335V21.7391H39.9335ZM40.6835 30.1413H50.4304V28.6413H40.6835V30.1413ZM51.1804 29.3913V25.7391H49.6804V29.3913H51.1804ZM46.4304 20.9891H40.6835V22.4891H46.4304V20.9891ZM52.88 37.7144L53.8742 38.2111L54.5446 36.8693L53.5504 36.3726L52.88 37.7144ZM53.8742 38.6584L52.88 39.1552L53.5504 40.497L54.5446 40.0003L53.8742 38.6584ZM1 16.9239H14.2278V15.4239H1V16.9239ZM10.7468 21.7935H23.2785V20.2935H10.7468V21.7935ZM1.6962 21.7935H7.96203V20.2935H1.6962V21.7935ZM7.26582 25.9674H20.4937V24.4674H7.26582V25.9674ZM1 25.9674H5.17722V24.4674H1V25.9674ZM3.08861 30.837H13.5316V29.337H3.08861V30.837ZM16.3165 30.837H23.2785V29.337H16.3165V30.837ZM19.0475 38.4348C19.0475 38.7884 18.7604 39.0761 18.4051 39.0761V40.5761C19.5877 40.5761 20.5475 39.618 20.5475 38.4348H19.0475ZM18.4051 39.0761C18.0497 39.0761 17.7627 38.7884 17.7627 38.4348H16.2627C16.2627 39.618 17.2224 40.5761 18.4051 40.5761V39.0761ZM17.7627 38.4348C17.7627 38.0812 18.0497 37.7935 18.4051 37.7935V36.2935C17.2224 36.2935 16.2627 37.2516 16.2627 38.4348H17.7627ZM18.4051 37.7935C18.7604 37.7935 19.0475 38.0812 19.0475 38.4348H20.5475C20.5475 37.2516 19.5877 36.2935 18.4051 36.2935V37.7935ZM45.5032 38.4348C45.5032 38.7884 45.2161 39.0761 44.8608 39.0761V40.5761C46.0434 40.5761 47.0032 39.618 47.0032 38.4348H45.5032ZM44.8608 39.0761C44.5054 39.0761 44.2184 38.7884 44.2184 38.4348H42.7184C42.7184 39.618 43.6781 40.5761 44.8608 40.5761V39.0761ZM44.2184 38.4348C44.2184 38.0812 44.5054 37.7935 44.8608 37.7935V36.2935C43.6781 36.2935 42.7184 37.2516 42.7184 38.4348H44.2184ZM44.8608 37.7935C45.2161 37.7935 45.5032 38.0812 45.5032 38.4348H47.0032C47.0032 37.2516 46.0434 36.2935 44.8608 36.2935V37.7935ZM13.5854 38.4348C13.5854 38.018 13.6383 37.6147 13.7372 37.2306L12.2846 36.8564C12.1545 37.3617 12.0854 37.8907 12.0854 38.4348H13.5854ZM13.7372 37.2306C14.2721 35.1539 16.1599 33.6196 18.4051 33.6196V32.1196C15.4598 32.1196 12.9863 34.1325 12.2846 36.8564L13.7372 37.2306ZM13.0109 36.2935H8.65823V37.7935H13.0109V36.2935ZM37.8987 36.2935H23.7992V37.7935H37.8987V36.2935ZM18.4051 33.6196C20.6502 33.6196 22.538 35.1539 23.0729 37.2306L24.5255 36.8564C23.8239 34.1325 21.3504 32.1196 18.4051 32.1196V33.6196ZM23.0729 37.2306C23.1719 37.6146 23.2247 38.018 23.2247 38.4348H24.7247C24.7247 37.8907 24.6557 37.3617 24.5255 36.8564L23.0729 37.2306ZM18.4051 43.25C16.1599 43.25 14.2721 41.7157 13.7372 39.639L12.2846 40.0132C12.9863 42.7371 15.4598 44.75 18.4051 44.75V43.25ZM13.7372 39.639C13.6383 39.2549 13.5854 38.8516 13.5854 38.4348H12.0854C12.0854 38.9788 12.1545 39.5079 12.2846 40.0132L13.7372 39.639ZM8.65823 40.5761H13.0109V39.0761H8.65823V40.5761ZM23.2247 38.4348C23.2247 38.8516 23.1719 39.2549 23.0729 39.639L24.5255 40.0132C24.6557 39.5079 24.7247 38.9788 24.7247 38.4348H23.2247ZM23.0729 39.639C22.538 41.7157 20.6502 43.25 18.4051 43.25V44.75C21.3504 44.75 23.8239 42.7371 24.5255 40.0132L23.0729 39.639ZM40.0411 38.4348C40.0411 38.018 40.094 37.6147 40.1929 37.2306L38.7403 36.8564C38.6102 37.3617 38.5411 37.8907 38.5411 38.4348H40.0411ZM40.1929 37.2306C40.7278 35.1539 42.6156 33.6196 44.8608 33.6196V32.1196C41.9155 32.1196 39.442 34.1325 38.7403 36.8564L40.1929 37.2306ZM39.4666 36.2935H37.8987V37.7935H39.4666V36.2935ZM53.2152 36.2935H50.2549V37.7935H53.2152V36.2935ZM44.8608 33.6196C47.1059 33.6196 48.9937 35.1539 49.5286 37.2306L50.9812 36.8564C50.2796 34.1325 47.8061 32.1196 44.8608 32.1196V33.6196ZM49.5286 37.2306C49.6276 37.6147 49.6804 38.018 49.6804 38.4348H51.1804C51.1804 37.8907 51.1114 37.3617 50.9812 36.8564L49.5286 37.2306ZM23.7992 40.5761H39.4666V39.0761H23.7992V40.5761ZM44.8608 43.25C42.6156 43.25 40.7278 41.7157 40.1929 39.639L38.7403 40.0132C39.442 42.7371 41.9155 44.75 44.8608 44.75V43.25ZM40.1929 39.639C40.094 39.2549 40.0411 38.8516 40.0411 38.4348H38.5411C38.5411 38.9788 38.6102 39.5079 38.7403 40.0132L40.1929 39.639ZM50.2549 40.5761H53.2152V39.0761H50.2549V40.5761ZM49.6804 38.4348C49.6804 38.8516 49.6276 39.2549 49.5286 39.639L50.9812 40.0132C51.1114 39.5079 51.1804 38.9788 51.1804 38.4348H49.6804ZM49.5286 39.639C48.9937 41.7157 47.1059 43.25 44.8608 43.25V44.75C47.8061 44.75 50.2796 42.7371 50.9812 40.0132L49.5286 39.639ZM51.1804 25.7391C51.1804 23.1158 49.0537 20.9891 46.4304 20.9891V22.4891C48.2253 22.4891 49.6804 23.9442 49.6804 25.7391H51.1804ZM53.8742 38.2111C54.0586 38.3032 54.0586 38.5663 53.8742 38.6584L54.5446 40.0003C55.8351 39.3555 55.8351 37.514 54.5446 36.8693L53.8742 38.2111ZM47.2152 19.0109C50.1147 19.0109 52.4652 21.3614 52.4652 24.2609H53.9652C53.9652 20.5329 50.9431 17.5109 47.2152 17.5109V19.0109ZM7.40319 36.9783C6.36345 37.671 6.36345 39.1986 7.40319 39.8912L8.23478 38.6428C8.08625 38.5439 8.08625 38.3257 8.23478 38.2267L7.40319 36.9783Z" fill="#00A0E3"/>
</svg>
