<svg width="20" height="20" viewBox="0 0 20 20" fill="none" xmlns="http://www.w3.org/2000/svg">
<path d="M2.23222 7.71429H5.42857H14.5714H17.7678C17.896 7.71429 18 7.81826 18 7.94651V8.44795C18 11.7234 17.2374 14.9538 15.7726 17.8834C15.7369 17.9548 15.6638 18 15.5839 18H4.41611C4.33619 18 4.26314 17.9548 4.2274 17.8834C2.7626 14.9538 2 11.7234 2 8.44795V7.94651C2 7.81826 2.10397 7.71429 2.23222 7.71429Z" fill="white"/>
<path d="M4.2274 17.8834L4.67461 17.6598L4.67461 17.6598L4.2274 17.8834ZM15.7726 17.8834L16.2198 18.107L16.2198 18.107L15.7726 17.8834ZM9.28589 2.25725C9.42796 2.02046 9.35118 1.71333 9.11439 1.57125C8.8776 1.42918 8.57047 1.50596 8.4284 1.74275L9.28589 2.25725ZM11.5716 1.74275C11.4295 1.50596 11.1224 1.42918 10.8856 1.57125C10.6488 1.71333 10.572 2.02046 10.7141 2.25725L11.5716 1.74275ZM2.23222 8.21429H17.7678V7.21429H2.23222V8.21429ZM17.5 7.94651V8.44795H18.5V7.94651H17.5ZM15.5839 17.5H4.41611V18.5H15.5839V17.5ZM2.5 8.44795V7.94651H1.5V8.44795H2.5ZM4.67461 17.6598C3.24453 14.7996 2.5 11.6457 2.5 8.44795H1.5C1.5 11.801 2.28067 15.1079 3.78019 18.107L4.67461 17.6598ZM4.41611 17.5C4.52558 17.5 4.62566 17.5618 4.67461 17.6598L3.78019 18.107C3.90062 18.3479 4.14681 18.5 4.41611 18.5V17.5ZM15.3254 17.6598C15.3743 17.5618 15.4744 17.5 15.5839 17.5V18.5C15.8532 18.5 16.0994 18.3479 16.2198 18.107L15.3254 17.6598ZM17.5 8.44795C17.5 11.6457 16.7555 14.7996 15.3254 17.6598L16.2198 18.107C17.7193 15.1079 18.5 11.801 18.5 8.44795H17.5ZM17.7678 8.21429C17.6199 8.21429 17.5 8.09439 17.5 7.94651H18.5C18.5 7.54212 18.1722 7.21429 17.7678 7.21429V8.21429ZM2.23222 7.21429C1.82783 7.21429 1.5 7.54211 1.5 7.94651H2.5C2.5 8.0944 2.38011 8.21429 2.23222 8.21429V7.21429ZM5.85732 7.97153L9.28589 2.25725L8.4284 1.74275L4.99983 7.45704L5.85732 7.97153ZM10.7141 2.25725L14.1427 7.97153L15.0002 7.45704L11.5716 1.74275L10.7141 2.25725ZM2.23222 8.21429H5.42857V7.21429H2.23222V8.21429ZM5.42857 8.21429H14.5714V7.21429H5.42857V8.21429ZM14.5714 8.21429H17.7678V7.21429H14.5714V8.21429Z" fill="#064E8C"/>
</svg>
