<svg width="24" height="24" viewBox="0 0 24 24" fill="none" xmlns="http://www.w3.org/2000/svg">
<path d="M4.67902 22.0002H7.73902C8.29131 22.0002 8.73902 21.5525 8.73902 21.0002V16.6089C8.73902 16.0567 9.18674 15.6089 9.73902 15.6089H13.259C13.8113 15.6089 14.259 16.0567 14.259 16.6089V21.0002C14.259 21.5525 14.7067 22.0002 15.259 22.0002H18.319C18.8713 22.0002 19.319 21.5525 19.319 21.0002V14.3263C19.319 13.774 19.7667 13.3263 20.319 13.3263H20.6984C21.5727 13.3263 22.026 12.2834 21.4296 11.6442L12.2302 1.78395C11.8348 1.36019 11.1632 1.36019 10.7678 1.78395L1.56846 11.6442C0.972041 12.2834 1.42536 13.3263 2.29965 13.3263H2.67902C3.23131 13.3263 3.67902 13.774 3.67902 14.3263V21.0002C3.67902 21.5525 4.12674 22.0002 4.67902 22.0002Z" stroke="#064E8C"/>
</svg>
