<svg width="201" height="145" viewBox="0 0 201 145" fill="none" xmlns="http://www.w3.org/2000/svg">
<path fill-rule="evenodd" clip-rule="evenodd" d="M113.677 0.636719H83.9616L98.8191 23.4028L113.677 0.636719ZM80.2667 2.27218L50.9414 47.2106H83.286L96.439 27.054L80.2667 2.27218Z" fill="#00A0E3"/>
<path fill-rule="evenodd" clip-rule="evenodd" d="M116.309 0.636719H83.9648L114.355 47.2106H146.7L116.309 0.636719Z" fill="#064E8C"/>
<path fill-rule="evenodd" clip-rule="evenodd" d="M131.843 73.9744L116.985 51.2031H146.7L131.843 73.9744ZM117.375 96.1415L101.202 71.3598L113.29 52.8386L129.462 77.6203L117.375 96.1415ZM98.8224 75.0109L113.68 97.777H83.9648L98.8224 75.0109Z" fill="#00A0E3"/>
<path fill-rule="evenodd" clip-rule="evenodd" d="M149.329 51.2031H116.984L147.375 97.777H179.714L149.329 51.2031Z" fill="#064E8C"/>
<path fill-rule="evenodd" clip-rule="evenodd" d="M65.7996 73.9744L50.9421 51.2031H80.6571L65.7996 73.9744ZM47.2472 52.8386L63.4195 77.6203L50.2665 97.777H17.9219L47.2472 52.8386Z" fill="#00A0E3"/>
<path fill-rule="evenodd" clip-rule="evenodd" d="M83.286 51.2031H50.9414L81.3321 97.777H113.677L83.286 51.2031Z" fill="#064E8C"/>
<path fill-rule="evenodd" clip-rule="evenodd" d="M14.0601 102.699H182.856L196.799 116.839V116.845H0.117188V116.839L14.0601 102.699Z" fill="#064E8C"/>
<path d="M13.0906 129.575C13.0906 133.476 11.0743 135.424 7.0364 135.424H4.44842V141.143H0V123.904H6.81294C8.82409 123.904 10.3727 124.393 11.4588 125.372C12.5502 126.351 13.0906 127.753 13.0906 129.575ZM8.43953 129.659C8.43953 128.888 8.23166 128.336 7.80553 128.013C7.38459 127.68 6.70901 127.513 5.77879 127.513H4.44842V131.789H5.82036C6.75578 131.789 7.42616 131.627 7.8315 131.305C8.23685 130.987 8.43953 130.435 8.43953 129.659ZM30.1516 123.904L22.424 141.143H17.4975L19.8256 136.388L13.3661 123.904H18.8123L22.3097 131.45L25.1835 123.904H30.1516ZM42.998 140.794C41.4545 141.33 40.1242 141.596 39.0121 141.596C36.4189 141.596 34.2362 140.726 32.4641 138.981C30.6921 137.237 29.8086 135.08 29.8086 132.523C29.8086 130.008 30.7076 127.867 32.5057 126.096C34.3038 124.331 36.476 123.445 39.0328 123.445C40.358 123.445 41.6832 123.737 42.998 124.32V129.711C41.9742 128.43 40.6542 127.789 39.0536 127.789C37.7389 127.789 36.6423 128.242 35.7693 129.133C34.9014 130.034 34.4649 131.159 34.4649 132.523C34.4649 133.929 34.891 135.065 35.7485 135.945C36.606 136.815 37.7181 137.252 39.0744 137.252C40.6335 137.252 41.943 136.643 42.998 135.424V140.794ZM62.2468 141.143H57.4554L56.3328 137.851H49.9512L48.8391 141.143H44.0477L50.5437 123.904H55.7404L62.2468 141.143ZM55.174 134.419L53.1473 128.45L51.1101 134.419H55.174ZM76.621 136.231C76.621 137.81 76.0702 139.018 74.9736 139.867C73.8719 140.721 72.3233 141.143 70.3173 141.143H63.5044V123.904H69.8652C73.2899 123.904 74.9996 125.404 74.9996 128.404C74.9996 130.107 74.3708 131.284 73.1028 131.93C75.4465 132.331 76.621 133.763 76.621 136.231ZM70.8942 129.008C70.8942 127.888 70.1303 127.331 68.6024 127.331H67.9528V130.669H68.5556C70.1147 130.669 70.8942 130.112 70.8942 129.008ZM72.0998 135.893C72.0998 134.653 71.2787 134.034 69.6262 134.034H67.9528V137.711H69.2416C71.1488 137.711 72.0998 137.106 72.0998 135.893ZM89.483 127.7H85.7621V141.143H81.3137V127.7H77.6188V123.904H89.483V127.7ZM108.508 132.523C108.508 135.127 107.604 137.294 105.796 139.013C103.987 140.737 101.721 141.596 98.993 141.596C96.2699 141.596 94.0042 140.737 92.2061 139.013C90.4028 137.294 89.5038 135.127 89.5038 132.523C89.5038 129.919 90.4028 127.753 92.2061 126.029C94.0042 124.31 96.2699 123.445 98.993 123.445C101.721 123.445 103.987 124.31 105.796 126.029C107.604 127.753 108.508 129.919 108.508 132.523ZM103.852 132.523C103.852 131.195 103.384 130.075 102.449 129.159C101.508 128.247 100.365 127.789 98.993 127.789C97.6315 127.789 96.4882 128.247 95.558 129.159C94.6226 130.075 94.1601 131.195 94.1601 132.523C94.1601 133.846 94.6226 134.971 95.558 135.883C96.4882 136.799 97.6315 137.252 98.993 137.252C100.365 137.252 101.508 136.799 102.449 135.883C103.384 134.971 103.852 133.846 103.852 132.523ZM126.437 144.638H122.534V141.143H112.796V144.638H108.893V137.367C109.953 137.367 110.701 136.768 111.133 135.56C111.465 134.638 111.632 133.252 111.632 131.403V123.904H124.66V137.367H126.437V144.638ZM120.206 137.367V127.674H115.805V133.179C115.805 135.31 115.264 136.705 114.188 137.367H120.206ZM138.119 141.143H128.329V123.904H138.119V127.7H132.777V130.581H137.844V134.398H132.777V137.346H138.119V141.143ZM151.413 127.7H147.692V141.143H143.243V127.7H139.549V123.904H151.413V127.7ZM168.723 141.143H163.932L162.804 137.851H156.428L155.31 141.143H150.524L157.015 123.904H162.217L168.723 141.143ZM161.65 134.419L159.624 128.45L157.581 134.419H161.65ZM184.007 141.143H179.538V127.7H175.495V134.883C175.495 136.898 175.219 138.382 174.663 139.336C173.858 140.69 172.382 141.372 170.23 141.372C169.487 141.372 168.848 141.273 168.313 141.08L168.536 137.143C168.973 137.341 169.425 137.44 169.882 137.44C170.371 137.44 170.703 137.263 170.875 136.914C171.067 136.513 171.166 135.711 171.166 134.513V123.904H184.007V141.143ZM200.138 135.731C200.138 137.997 199.197 139.565 197.321 140.429C196.302 140.903 195.05 141.143 193.569 141.143H186.953V123.904H191.402V130.351H193.574C195.008 130.351 196.266 130.607 197.342 131.122C199.207 132.002 200.138 133.544 200.138 135.731ZM195.689 135.726C195.689 134.383 194.821 133.711 193.091 133.711H191.402V137.711H193.091C194.821 137.711 195.689 137.049 195.689 135.726Z" fill="#064E8C"/>
</svg>
