<svg width="135" height="90" viewBox="0 0 135 90" fill="none" xmlns="http://www.w3.org/2000/svg">
<path opacity="0.18" fill-rule="evenodd" clip-rule="evenodd" d="M29.3464 3.9435C29.3464 2.87014 30.2168 2 31.2905 2H40.5251C41.5989 2 42.4693 2.87014 42.4693 3.9435V6.85876H55.5922V3.9435C55.5922 2.87014 56.4626 2 57.5363 2H77.9497C79.0234 2 79.8939 2.87014 79.8939 3.9435V6.85876H92.5307V3.9435C92.5307 2.87014 93.4011 2 94.4749 2H103.709C104.783 2 105.654 2.87014 105.654 3.9435V6.85876H107.355C109.368 6.85876 111 8.49026 111 10.5028C111 12.5154 109.368 14.1469 107.355 14.1469H105.654V17.548C105.654 18.6214 104.783 19.4915 103.709 19.4915H94.4749C93.4011 19.4915 92.5307 18.6214 92.5307 17.548V14.1469H79.8939V17.548C79.8939 18.6214 79.0234 19.4915 77.9497 19.4915H74.0615V23.8644C74.0615 24.9378 73.191 25.8079 72.1173 25.8079H71.6313V58.3616H72.1173C73.191 58.3616 74.0615 59.2317 74.0615 60.3051V64.678H77.9497C79.0234 64.678 79.8939 65.5481 79.8939 66.6215V70.0226H92.5307V66.6215C92.5307 65.5481 93.4011 64.678 94.4749 64.678H103.709C104.783 64.678 105.654 65.5481 105.654 66.6215V70.0226H107.355C109.368 70.0226 111 71.6541 111 73.6667C111 75.6792 109.368 77.3107 107.355 77.3107H105.654V80.226C105.654 81.2994 104.783 82.1695 103.709 82.1695H94.4749C93.4011 82.1695 92.5307 81.2994 92.5307 80.226V77.3107H79.8939V80.226C79.8939 81.2994 79.0234 82.1695 77.9497 82.1695H76.9777V86.0565C76.9777 87.1299 76.1072 88 75.0335 88H59.9665C58.8928 88 58.0223 87.1299 58.0223 86.0565V82.1695H57.5363C56.4626 82.1695 55.5922 81.2994 55.5922 80.226V77.3107H42.4693V80.226C42.4693 81.2994 41.5989 82.1695 40.5251 82.1695H31.2905C30.2168 82.1695 29.3464 81.2994 29.3464 80.226V77.3107H27.6453C25.632 77.3107 24 75.6792 24 73.6667C24 71.6541 25.632 70.0226 27.6453 70.0226H29.3464V66.6215C29.3464 65.5481 30.2168 64.678 31.2905 64.678H40.5251C41.5989 64.678 42.4693 65.5481 42.4693 66.6215V70.0226H55.5922V66.6215C55.5922 65.5481 56.4626 64.678 57.5363 64.678H60.9385V60.3051C60.9385 59.2317 61.809 58.3616 62.8827 58.3616H63.8547V25.8079H62.8827C61.809 25.8079 60.9385 24.9378 60.9385 23.8644V19.4915H57.5363C56.4626 19.4915 55.5922 18.6214 55.5922 17.548V14.1469H42.4693V17.548C42.4693 18.6214 41.5989 19.4915 40.5251 19.4915H31.2905C30.2168 19.4915 29.3464 18.6214 29.3464 17.548V14.1469H27.6453C25.632 14.1469 24 12.5154 24 10.5028C24 8.49026 25.632 6.85876 27.6453 6.85876H29.3464V3.9435ZM29.3464 8.80226H27.6453C26.7058 8.80226 25.9441 9.56363 25.9441 10.5028C25.9441 11.442 26.7058 12.2034 27.6453 12.2034H29.3464V8.80226ZM42.4693 12.2034H55.5922V8.80226H42.4693V12.2034ZM60.9385 17.548V11.7175C60.9385 10.6441 61.809 9.77401 62.8827 9.77401H63.8547V3.9435H57.5363V17.548H60.9385ZM65.7989 3.9435V9.77401H69.6872V3.9435H65.7989ZM71.6313 3.9435V9.77401H72.1173C73.191 9.77401 74.0615 10.6441 74.0615 11.7175V17.548H77.9497V3.9435H71.6313ZM65.7989 25.8079V58.3616H69.6872V25.8079H65.7989ZM60.9385 66.6215H57.5363V80.226H63.8547V74.3955H62.8827C61.809 74.3955 60.9385 73.5253 60.9385 72.452V66.6215ZM65.7989 74.3955V80.226H69.6872V74.3955H65.7989ZM71.6313 74.3955V80.226H77.9497V66.6215H74.0615V72.452C74.0615 73.5253 73.191 74.3955 72.1173 74.3955H71.6313ZM55.5922 71.9661H42.4693V75.3672H55.5922V71.9661ZM29.3464 71.9661H27.6453C26.7058 71.9661 25.9441 72.7275 25.9441 73.6667C25.9441 74.6059 26.7058 75.3672 27.6453 75.3672H29.3464V71.9661ZM59.9665 82.1695V86.0565H75.0335V82.1695H59.9665ZM79.8939 75.3672H92.5307V71.9661H79.8939V75.3672ZM105.654 75.3672H107.355C108.294 75.3672 109.056 74.6059 109.056 73.6667C109.056 72.7275 108.294 71.9661 107.355 71.9661H105.654V75.3672ZM79.8939 12.2034H92.5307V8.80226H79.8939V12.2034ZM105.654 12.2034H107.355C108.294 12.2034 109.056 11.442 109.056 10.5028C109.056 9.56363 108.294 8.80226 107.355 8.80226H105.654V12.2034ZM40.5251 3.9435H31.2905V17.548H40.5251V3.9435ZM103.709 3.9435H94.4749V17.548H103.709V3.9435ZM62.8827 11.7175V23.8644H72.1173V11.7175H62.8827ZM62.8827 60.3051V72.452H72.1173V60.3051H62.8827ZM40.5251 66.6215H31.2905V80.226H40.5251V66.6215ZM103.709 66.6215H94.4749V80.226H103.709V66.6215Z" fill="#00A0E3"/>
</svg>
