<svg width="135" height="90" viewBox="0 0 135 90" fill="none" xmlns="http://www.w3.org/2000/svg">
<path opacity="0.18" fill-rule="evenodd" clip-rule="evenodd" d="M28.6474 2C29.274 2 29.782 2.50663 29.782 3.13158V7.35916H36.7216C37.3482 7.35916 37.8562 7.86578 37.8562 8.49074V14.728H98.1623V8.49074C98.1623 7.86578 98.6703 7.35916 99.297 7.35916H105.227V3.13158C105.227 2.50663 105.735 2 106.362 2C106.989 2 107.497 2.50663 107.497 3.13158V7.35916H113.427C114.054 7.35916 114.561 7.86578 114.561 8.49074V14.728H124.865C125.492 14.728 126 15.2346 126 15.8596V27.9177C126 28.5426 125.492 29.0493 124.865 29.0493H121.29V86.8684C121.29 87.4934 120.782 88 120.155 88H13.8446C13.218 88 12.71 87.4934 12.71 86.8684V29.0493H9.13462C8.50798 29.0493 8 28.5426 8 27.9177V15.8596C8 15.2346 8.50798 14.728 9.13462 14.728H19.4385V8.49074C19.4385 7.86578 19.9465 7.35916 20.5731 7.35916H27.5127V3.13158C27.5127 2.50663 28.0207 2 28.6474 2ZM21.7077 14.728H35.587V9.62232H21.7077V14.728ZM14.9792 29.0493V85.7368H119.021V29.0493H14.9792ZM112.292 14.728V9.62232H100.432V14.728H112.292ZM10.2692 16.9912V26.7861H123.731V16.9912H10.2692ZM27.9745 34.1549C28.6011 34.1549 29.1091 34.6616 29.1091 35.2865V40.184H34.0302C34.6568 40.184 35.1648 40.6906 35.1648 41.3156C35.1648 41.9405 34.6568 42.4472 34.0302 42.4472H29.1091V47.3446C29.1091 47.9696 28.6011 48.4762 27.9745 48.4762C27.3479 48.4762 26.8399 47.9696 26.8399 47.3446V42.4472H22.5917C21.9651 42.4472 21.4571 41.9405 21.4571 41.3156C21.4571 40.6906 21.9651 40.184 22.5917 40.184H26.8399V35.2865C26.8399 34.6616 27.3479 34.1549 27.9745 34.1549ZM61.2574 36.8273C61.4417 36.4237 61.8454 36.1646 62.29 36.1646H73.0557C73.4416 36.1646 73.801 36.3602 74.0098 36.6839C74.2186 37.0076 74.2482 37.4149 74.0883 37.7651L68.0905 50.9023H81.1299C81.5638 50.9023 81.9597 51.1491 82.1498 51.538C82.3399 51.927 82.291 52.39 82.0238 52.7309L60.4925 80.1966C60.1645 80.6149 59.5889 80.7496 59.1086 80.5202C58.6283 80.2908 58.3726 79.7592 58.4938 79.242L62.8782 60.5343H52.1972C51.8113 60.5343 51.4519 60.3387 51.2431 60.015C51.0343 59.6914 51.0047 59.2841 51.1646 58.9338L61.2574 36.8273ZM63.0201 38.4278L53.9605 58.2712H64.3086C64.6549 58.2712 64.9823 58.4289 65.1975 58.6995C65.4127 58.9701 65.4922 59.3239 65.4134 59.6603L61.8749 74.7587L78.8026 53.1655H66.3271C65.9412 53.1655 65.5818 52.9699 65.373 52.6462C65.1642 52.3226 65.1346 51.9152 65.2945 51.565L71.2924 38.4278H63.0201ZM99.5081 41.3156C99.5081 40.6906 100.016 40.184 100.643 40.184H111.408C112.035 40.184 112.543 40.6906 112.543 41.3156C112.543 41.9405 112.035 42.4472 111.408 42.4472H100.643C100.016 42.4472 99.5081 41.9405 99.5081 41.3156Z" fill="#00A0E3"/>
</svg>
