<svg width="136" height="91" viewBox="0 0 136 91" fill="none" xmlns="http://www.w3.org/2000/svg">
<path opacity="0.4" fill-rule="evenodd" clip-rule="evenodd" d="M54.3688 4.5161C54.3688 3.47815 55.2058 2.63672 56.2384 2.63672H84.2376C85.2701 2.63672 86.1072 3.47815 86.1072 4.5161V11.0939C86.1072 12.1319 85.2701 12.9733 84.2376 12.9733H75.1553V16.0688H94.7924C96.404 16.0688 98.2247 16.3257 99.6841 17.4656C101.192 18.6436 103.033 20.7491 103.033 23.9732C103.033 27.1974 101.192 29.3029 99.6841 30.4809C98.2247 31.6208 96.404 31.8777 94.7924 31.8777H88.0984V35.4706H102.38L108.408 39.487C109.715 40.3573 110.5 41.8279 110.5 43.4034V67.9285C110.5 69.3606 109.85 70.7145 108.735 71.6058L102.424 76.6512H94.0722V83.1542L86.9636 88.3637C86.037 89.0427 84.7354 88.3774 84.7354 87.2247V76.6512H81.129V83.1542L74.0204 88.3637C73.0938 89.0427 71.7923 88.3774 71.7923 87.2247V76.6512H68.1859V83.1542L61.0773 88.3637C60.1507 89.0427 58.8491 88.3774 58.8491 87.2247V76.6512H55.2427V83.1542L48.1342 88.3637C47.2075 89.0427 45.906 88.3774 45.906 87.2247V76.6512H41.6801C39.615 76.6512 37.941 74.9684 37.941 72.8925V62.2242H34.3346V69.797C34.3346 70.835 33.4975 71.6764 32.465 71.6764H26.3696C25.337 71.6764 24.5 70.835 24.5 69.797V42.3249C24.5 41.2869 25.337 40.4455 26.3696 40.4455H32.465C33.4975 40.4455 34.3346 41.2869 34.3346 42.3249V50.8926H37.941V39.2294C37.941 37.1535 39.615 35.4706 41.6801 35.4706H52.3775V31.8777H45.0905C43.9295 31.8777 42.4883 31.8023 41.2737 30.9964C39.7468 29.9834 37.941 27.9112 37.941 23.9732C37.941 20.0353 39.7469 17.9631 41.2737 16.9501C42.4883 16.1442 43.9295 16.0688 45.0905 16.0688H65.3207V12.9733H56.2384C55.2058 12.9733 54.3688 12.1319 54.3688 11.0939V4.5161ZM67.1903 12.9733V16.0688H73.2857V12.9733H67.1903ZM54.2471 31.8777V35.4706H86.2288V31.8777H54.2471ZM37.941 52.772H34.3346V60.3448H37.941V52.772ZM45.906 74.7719V59.2946H46.8408C45.906 59.2946 45.906 59.2941 45.906 59.2936L45.906 59.2924L45.906 59.29L45.906 59.284L45.9062 59.2683C45.9064 59.2561 45.9068 59.2405 45.9075 59.2217C45.9088 59.1843 45.9113 59.1341 45.916 59.0728C45.9254 58.9507 45.9435 58.7829 45.979 58.5843C46.0493 58.1912 46.1914 57.6545 46.4845 57.1076C46.7804 56.5557 47.2349 55.9857 47.9241 55.5572C48.6159 55.127 49.4911 54.8725 50.5744 54.8725C51.6576 54.8725 52.5328 55.127 53.2246 55.5572C53.9138 55.9857 54.3683 56.5557 54.6642 57.1076C54.9573 57.6545 55.0994 58.1912 55.1697 58.5843C55.2052 58.7829 55.2233 58.9507 55.2327 59.0728C55.2374 59.1341 55.2399 59.1843 55.2412 59.2217C55.2419 59.2405 55.2423 59.2561 55.2425 59.2683L55.2427 59.284L55.2427 59.29L55.2427 59.2924V59.2936C55.2427 59.2941 55.2427 59.2946 54.3079 59.2946H55.2427V74.7719H58.8491V59.2946H59.7839C58.8491 59.2946 58.8491 59.2941 58.8491 59.2936V59.2924L58.8491 59.29L58.8492 59.284L58.8494 59.2683C58.8496 59.2561 58.85 59.2405 58.8506 59.2217C58.852 59.1843 58.8545 59.1341 58.8592 59.0728C58.8685 58.9507 58.8867 58.7829 58.9222 58.5843C58.9924 58.1912 59.1345 57.6545 59.4277 57.1076C59.7235 56.5557 60.178 55.9857 60.8673 55.5572C61.5591 55.127 62.4342 54.8725 63.5175 54.8725C64.6008 54.8725 65.4759 55.127 66.1677 55.5572C66.857 55.9857 67.3115 56.5557 67.6073 57.1076C67.9005 57.6545 68.0426 58.1912 68.1128 58.5843C68.1483 58.7829 68.1665 58.9507 68.1758 59.0728C68.1805 59.1341 68.183 59.1843 68.1844 59.2217C68.185 59.2405 68.1854 59.2561 68.1856 59.2683L68.1858 59.284L68.1859 59.29L68.1859 59.2924V59.2936C68.1859 59.2941 68.1859 59.2946 67.2511 59.2946H68.1859V74.7719H71.7923V59.2946H72.727C71.7923 59.2946 71.7923 59.2941 71.7923 59.2936V59.2924L71.7923 59.29L71.7923 59.284L71.7925 59.2683C71.7927 59.2561 71.7931 59.2405 71.7938 59.2217C71.7951 59.1843 71.7976 59.1341 71.8023 59.0728C71.8117 58.9507 71.8298 58.7829 71.8653 58.5843C71.9356 58.1912 72.0777 57.6545 72.3708 57.1076C72.6667 56.5557 73.1212 55.9857 73.8104 55.5572C74.5022 55.127 75.3774 54.8725 76.4606 54.8725C77.5439 54.8725 78.4191 55.127 79.1109 55.5572C79.8001 55.9857 80.2546 56.5557 80.5504 57.1076C80.8436 57.6545 80.9857 58.1912 81.056 58.5843C81.0914 58.7829 81.1096 58.9507 81.119 59.0728C81.1237 59.1341 81.1262 59.1843 81.1275 59.2217C81.1282 59.2405 81.1286 59.2561 81.1288 59.2683L81.129 59.284L81.129 59.29L81.129 59.2924V59.2936C81.129 59.2941 81.129 59.2946 80.1942 59.2946H81.129V74.7719H84.7354V59.2946H85.6702C84.7354 59.2946 84.7354 59.2941 84.7354 59.2936V59.2924L84.7354 59.29L84.7354 59.284L84.7357 59.2683C84.7359 59.2561 84.7362 59.2405 84.7369 59.2217C84.7383 59.1843 84.7408 59.1341 84.7455 59.0728C84.7548 58.9507 84.773 58.7829 84.8085 58.5843C84.8787 58.1912 85.0208 57.6545 85.314 57.1076C85.6098 56.5557 86.0643 55.9857 86.7535 55.5572C87.4454 55.127 88.3205 54.8725 89.4038 54.8725C90.4871 54.8725 91.3622 55.127 92.054 55.5572C92.7432 55.9857 93.1977 56.5557 93.4936 57.1076C93.7867 57.6545 93.9289 58.1912 93.9991 58.5843C94.0346 58.7829 94.0528 58.9507 94.0621 59.0728C94.0668 59.1341 94.0693 59.1843 94.0706 59.2217C94.0713 59.2405 94.0717 59.2561 94.0719 59.2683L94.0721 59.284L94.0722 59.29V59.2924V59.2936C94.0722 59.2941 94.0722 59.2946 93.1374 59.2946H94.0722V74.7719H101.163V46.8022H39.8105V72.8925C39.8105 73.9304 40.6476 74.7719 41.6801 74.7719H45.906ZM39.8105 44.9228H101.163V37.35H41.6801C40.6476 37.35 39.8105 38.1915 39.8105 39.2294V44.9228ZM103.033 38.1604L107.375 41.0535C108.159 41.5757 108.63 42.4581 108.63 43.4034V67.9285C108.63 68.7878 108.241 69.6001 107.572 70.1349L103.033 73.7636V38.1604ZM62.3338 4.5161H56.2384V11.0939H62.3338V4.5161ZM64.2034 4.5161V11.0939H69.3032V4.5161H64.2034ZM71.1728 4.5161V11.0939H76.7704V4.5161H71.1728ZM78.64 4.5161V11.0939L84.2376 11.0939L84.2376 4.5161H78.64ZM45.0905 17.9482C43.9457 17.9482 43.0133 18.0477 42.3036 18.5186C41.2466 19.2199 39.8105 20.7295 39.8105 23.9732C39.8105 27.2169 41.2466 28.7266 42.3036 29.4279C43.0133 29.8988 43.9457 29.9983 45.0905 29.9983H94.7924C96.2562 29.9983 97.5679 29.7537 98.537 28.9968C99.8013 28.0093 101.163 26.3921 101.163 23.9732C101.163 21.5544 99.8013 19.9372 98.537 18.9497C97.5679 18.1928 96.2562 17.9482 94.7924 17.9482H45.0905ZM48.3342 22.4255C47.1956 22.4255 46.2821 23.3464 46.2821 24.4707C46.2821 25.595 47.1956 26.5159 48.3342 26.5159C49.4727 26.5159 50.3863 25.595 50.3863 24.4707C50.3863 23.3464 49.4727 22.4255 48.3342 22.4255ZM44.4125 24.4707C44.4125 22.298 46.1735 20.5461 48.3342 20.5461C50.4949 20.5461 52.2559 22.298 52.2559 24.4707C52.2559 26.6434 50.4949 28.3953 48.3342 28.3953C46.1735 28.3953 44.4125 26.6434 44.4125 24.4707ZM70.238 22.4255C69.0994 22.4255 68.1859 23.3464 68.1859 24.4707C68.1859 25.595 69.0994 26.5159 70.238 26.5159C71.3765 26.5159 72.2901 25.595 72.2901 24.4707C72.2901 23.3464 71.3765 22.4255 70.238 22.4255ZM66.3163 24.4707C66.3163 22.298 68.0773 20.5461 70.238 20.5461C72.3986 20.5461 74.1596 22.298 74.1596 24.4707C74.1596 26.6434 72.3986 28.3953 70.238 28.3953C68.0773 28.3953 66.3163 26.6434 66.3163 24.4707ZM93.1374 22.4255C91.9988 22.4255 91.0853 23.3464 91.0853 24.4707C91.0853 25.595 91.9988 26.5159 93.1374 26.5159C94.2759 26.5159 95.1895 25.595 95.1895 24.4707C95.1895 23.3464 94.2759 22.4255 93.1374 22.4255ZM89.2157 24.4707C89.2157 22.298 90.9767 20.5461 93.1374 20.5461C95.298 20.5461 97.059 22.298 97.059 24.4707C97.059 26.6434 95.298 28.3953 93.1374 28.3953C90.9767 28.3953 89.2157 26.6434 89.2157 24.4707ZM32.465 42.3249H26.3696V69.797L32.465 69.797V42.3249ZM47.7755 59.3V86.3007L53.3732 82.1985V59.2999L53.3729 59.2892C53.3725 59.2803 53.3719 59.2667 53.3708 59.2488C53.3703 59.2394 53.3695 59.2288 53.3686 59.2171C53.3634 59.1488 53.3524 59.0445 53.3296 58.9166C53.2831 58.6567 53.1919 58.3229 53.0183 57.9992C52.8475 57.6805 52.6019 57.3799 52.2411 57.1555C51.8828 56.9327 51.3579 56.7519 50.5744 56.7519C49.7908 56.7519 49.2659 56.9327 48.9076 57.1555C48.5468 57.3799 48.3012 57.6805 48.1304 57.9992C47.9568 58.3229 47.8656 58.6567 47.8191 58.9166C47.7963 59.0445 47.7853 59.1488 47.7801 59.2171C47.7775 59.2511 47.7763 59.2757 47.7758 59.2892L47.7755 59.3ZM60.719 59.2892L60.7187 59.2999V86.3007L66.3163 82.1985V59.2999L66.316 59.2892C66.3155 59.2757 66.3144 59.2511 66.3118 59.2171C66.3065 59.1488 66.2956 59.0445 66.2727 58.9166C66.2263 58.6567 66.135 58.3229 65.9615 57.9992C65.7906 57.6805 65.5451 57.3799 65.1842 57.1555C64.826 56.9327 64.301 56.7519 63.5175 56.7519C62.734 56.7519 62.209 56.9327 61.8508 57.1555C61.4899 57.3799 61.2444 57.6805 61.0735 57.9992C60.9 58.3229 60.8087 58.6567 60.7623 58.9166C60.7394 59.0445 60.7284 59.1488 60.7232 59.2171C60.7206 59.2511 60.7195 59.2757 60.719 59.2892ZM73.6621 59.2892L73.6618 59.2999V86.3007L79.2595 82.1985V59.2999L79.2591 59.2892C79.2589 59.2829 79.2586 59.2742 79.258 59.2632C79.2573 59.2507 79.2563 59.2352 79.2549 59.2171C79.2497 59.1488 79.2387 59.0445 79.2158 58.9166C79.1694 58.6567 79.0782 58.3229 78.9046 57.9992C78.7338 57.6805 78.4882 57.3799 78.1274 57.1555C77.7691 56.9327 77.2442 56.7519 76.4606 56.7519C75.6771 56.7519 75.1522 56.9327 74.7939 57.1555C74.4331 57.3799 74.1875 57.6805 74.0166 57.9992C73.8431 58.3229 73.7519 58.6567 73.7054 58.9166C73.6826 59.0445 73.6716 59.1488 73.6664 59.2171C73.6638 59.2511 73.6626 59.2757 73.6621 59.2892ZM86.6053 59.2892L86.605 59.2964L86.605 59.2979L86.6049 59.3001L86.605 86.3007L92.2026 82.1985V59.2999L92.2026 59.2979V59.2964L92.2023 59.2892C92.202 59.2811 92.2015 59.269 92.2005 59.2532C92.1999 59.2427 92.1991 59.2307 92.1981 59.2171C92.1928 59.1488 92.1818 59.0445 92.159 58.9166C92.1125 58.6567 92.0213 58.3229 91.8478 57.9992C91.6769 57.6805 91.4314 57.3799 91.0705 57.1555C90.7123 56.9327 90.1873 56.7519 89.4038 56.7519C88.6203 56.7519 88.0953 56.9327 87.737 57.1555C87.3762 57.3799 87.1306 57.6805 86.9598 57.9992C86.7862 58.3229 86.695 58.6567 86.6486 58.9166C86.6257 59.0445 86.6147 59.1488 86.6095 59.2171C86.6069 59.2511 86.6058 59.2757 86.6053 59.2892Z" fill="#00A0E3"/>
</svg>
