<svg width="135" height="104" viewBox="0 0 135 104" fill="none" xmlns="http://www.w3.org/2000/svg">
<path fill-rule="evenodd" clip-rule="evenodd" d="M14 4C14 2.34315 15.3431 1 17 1H37.0566C38.7135 1 40.0566 2.34314 40.0566 4V5.26667H61.2453C63.4544 5.26667 65.2453 7.05753 65.2453 9.26667V9.53333H91.8619C94.9915 9.53333 98.2729 9.79624 101.301 11.0905C108.039 13.971 116.846 20.4644 117.038 31.8498C117.274 45.8981 106.484 52.9202 101.064 54.6842L101.003 54.7041L100.366 54.8242C97.8629 55.2959 95.3306 55.5333 92.783 55.5333H42.8079C40.7254 55.8374 37.5606 56.8389 34.8479 58.85C32.13 60.8649 29.8965 63.8631 29.5823 68.2055C29.0763 75.1981 33.1078 79.7083 36.5164 81.9549C37.9097 82.8732 39.6134 83.2665 41.4595 83.4985C42.3513 83.6105 43.2478 83.6667 44.1465 83.6667H47.1132V79.8C47.1132 78.6954 48.0086 77.8 49.1132 77.8H51.9245V75.2667C51.9245 74.1621 52.82 73.2667 53.9245 73.2667H57.8679C58.9725 73.2667 59.8679 74.1621 59.8679 75.2667V77.8H76.8268L87.0155 80.4667H119C120.105 80.4667 121 81.3621 121 82.4667V94.6C121 95.7046 120.105 96.6 119 96.6H87.0155L77.5738 99.0712C77.0779 99.201 76.5673 99.2667 76.0546 99.2667H59.8679V101C59.8679 102.105 58.9725 103 57.8679 103H53.9245C52.82 103 51.9245 102.105 51.9245 101V99.2667H49.1132C48.0086 99.2667 47.1132 98.3712 47.1132 97.2667V93.1333H42.7358C39.5818 93.1333 36.3137 92.0445 33.5552 90.737C30.7889 89.4258 28.4466 87.8521 27.1139 86.7831C23.5009 83.9434 17.1866 75.4595 20.2599 63.8769C22.7526 54.4821 30.7922 49.4992 36.5398 47.4068C39.0443 46.495 41.6927 46.3333 44.2077 46.3333H91.7583C94.7265 46.3333 97.6535 45.6392 100.306 44.3065L100.755 45.1999L100.342 44.2893C102.612 43.2594 107.396 39.2863 107.396 31.8667C107.396 27.6274 104.881 24.2925 101.917 21.9379C98.5934 19.2976 94.118 18.7333 89.548 18.7333H65.21C64.9493 20.6903 63.2736 22.2 61.2453 22.2H40.0566V24C40.0566 25.6569 38.7135 27 37.0566 27H17C15.3431 27 14 25.6569 14 24V4ZM40.0566 20.2H61.2453C62.3498 20.2 63.2453 19.3046 63.2453 18.2V9.26667C63.2453 8.1621 62.3498 7.26667 61.2453 7.26667H40.0566V20.2ZM65.2453 16.7333H89.548C94.1907 16.7333 99.2712 17.2818 103.161 20.3718C106.367 22.9183 109.396 26.7688 109.396 31.8667C109.396 40.2153 104.016 44.8093 101.186 46.1022C98.2602 47.5693 95.0319 48.3333 91.7583 48.3333H44.2077C41.7522 48.3333 39.3902 48.4975 37.224 49.2861C31.7577 51.2762 24.4439 55.9063 22.193 64.3898C19.3806 74.9892 25.1733 82.7165 28.3534 85.2135L28.3618 85.2201C29.577 86.1954 31.7893 87.6866 34.4118 88.9297C37.0448 90.1777 40.0031 91.1333 42.7358 91.1333H47.1132V85.6667H44.1465C43.1643 85.6667 42.1846 85.6053 41.2102 85.4829C39.2791 85.2403 37.2011 84.8015 35.4158 83.6248C31.6333 81.1318 27.012 76.0145 27.5875 68.0612C27.9525 63.0169 30.5775 59.5262 33.6568 57.2433C36.7117 54.9786 40.2441 53.8732 42.5969 53.543L42.666 53.5333H92.783C95.2058 53.5333 97.6142 53.3075 99.9956 52.8588L100.505 52.7628C105.482 51.1167 115.253 44.6637 115.038 31.8835C114.866 21.6837 106.982 15.6943 100.514 12.9295C97.8632 11.7962 94.9082 11.5333 91.8619 11.5333H65.2453V16.7333ZM51.9245 97.2667V79.8H49.1132V97.2667H51.9245ZM59.8679 97.2667H76.0546C76.3964 97.2667 76.7368 97.2229 77.0674 97.1363L85.8868 94.828V82.2386L77.6981 80.0954V83.3333C77.6981 83.8856 77.2504 84.3333 76.6981 84.3333C76.1458 84.3333 75.6981 83.8856 75.6981 83.3333V79.8H59.8679V97.2667ZM87.8868 82.4667V94.6H106.264V84.1333C106.264 83.581 106.712 83.1333 107.264 83.1333C107.816 83.1333 108.264 83.581 108.264 84.1333V94.6H112.774V84.1333C112.774 83.581 113.221 83.1333 113.774 83.1333C114.326 83.1333 114.774 83.581 114.774 84.1333V94.6H119V82.4667H98.3585V93.2C98.3585 93.7523 97.9108 94.2 97.3585 94.2C96.8062 94.2 96.3585 93.7523 96.3585 93.2V82.4667H92.1321V93.2C92.1321 93.7523 91.6844 94.2 91.1321 94.2C90.5798 94.2 90.1321 93.7523 90.1321 93.2V82.4667H87.8868ZM17 3C16.4477 3 16 3.44772 16 4V24C16 24.5523 16.4477 25 17 25H37.0566C37.6089 25 38.0566 24.5523 38.0566 24V4C38.0566 3.44772 37.6089 3 37.0566 3H17ZM17.3962 6.8C17.3962 6.24772 17.8439 5.8 18.3962 5.8H36.5094C37.0617 5.8 37.5094 6.24772 37.5094 6.8C37.5094 7.35228 37.0617 7.8 36.5094 7.8H18.3962C17.8439 7.8 17.3962 7.35228 17.3962 6.8ZM17.3962 10.5333C17.3962 9.98105 17.8439 9.53333 18.3962 9.53333H36.5094C37.0617 9.53333 37.5094 9.98105 37.5094 10.5333C37.5094 11.0856 37.0617 11.5333 36.5094 11.5333H18.3962C17.8439 11.5333 17.3962 11.0856 17.3962 10.5333ZM17.3962 14.2667C17.3962 13.7144 17.8439 13.2667 18.3962 13.2667H36.5094C37.0617 13.2667 37.5094 13.7144 37.5094 14.2667C37.5094 14.819 37.0617 15.2667 36.5094 15.2667H18.3962C17.8439 15.2667 17.3962 14.819 17.3962 14.2667ZM17.3962 18C17.3962 17.4477 17.8439 17 18.3962 17H36.5094C37.0617 17 37.5094 17.4477 37.5094 18C37.5094 18.5523 37.0617 19 36.5094 19H18.3962C17.8439 19 17.3962 18.5523 17.3962 18ZM17.3962 21.7333C17.3962 21.181 17.8439 20.7333 18.3962 20.7333H36.5094C37.0617 20.7333 37.5094 21.181 37.5094 21.7333C37.5094 22.2856 37.0617 22.7333 36.5094 22.7333H18.3962C17.8439 22.7333 17.3962 22.2856 17.3962 21.7333ZM57.8679 75.2667H53.9245V101H57.8679V75.2667ZM76.6981 87.4C77.2504 87.4 77.6981 87.8477 77.6981 88.4V94.2667C77.6981 94.8189 77.2504 95.2667 76.6981 95.2667C76.1458 95.2667 75.6981 94.8189 75.6981 94.2667V88.4C75.6981 87.8477 76.1458 87.4 76.6981 87.4Z" fill="#00A0E3"/>
</svg>
