<svg width="21" height="21" viewBox="0 0 21 21" fill="none" xmlns="http://www.w3.org/2000/svg">
<path d="M4.65438 15.7083C4.45912 15.9036 4.45912 16.2202 4.65438 16.4154C4.84964 16.6107 5.16621 16.6107 5.36147 16.4154L4.65438 15.7083ZM16.6035 5.1729C16.7988 4.97763 16.7988 4.66104 16.6035 4.46578C16.4083 4.27051 16.0917 4.27051 15.8965 4.46578L16.6035 5.1729ZM15.8965 4.46578L4.65438 15.7083L5.36147 16.4154L16.6035 5.1729L15.8965 4.46578Z" fill="#A3A8AB"/>
<path d="M5.36124 4.46493C5.16598 4.26967 4.8494 4.26967 4.65414 4.46493C4.45888 4.66019 4.45888 4.97678 4.65414 5.17204L5.36124 4.46493ZM15.8964 16.4143C16.0917 16.6096 16.4083 16.6096 16.6036 16.4143C16.7988 16.2191 16.7988 15.9025 16.6036 15.7072L15.8964 16.4143ZM16.6036 15.7072L5.36124 4.46493L4.65414 5.17204L15.8964 16.4143L16.6036 15.7072Z" fill="#A3A8AB"/>
</svg>
