<svg width="135" height="90" viewBox="0 0 135 90" fill="none" xmlns="http://www.w3.org/2000/svg">
<path fill-rule="evenodd" clip-rule="evenodd" d="M133 13.9155C133 12.3053 131.697 11 130.089 11H19.8238C18.6798 11 17.6418 11.6711 17.1708 12.7153L2 46.3495V77.0845C2 78.6947 3.30336 80 4.91111 80H21.4929L21.6493 79.2216L21.6496 79.2199L21.6529 79.2043C21.6562 79.1893 21.6616 79.1648 21.6695 79.1314C21.6851 79.0645 21.7103 78.9621 21.7466 78.8292C21.8191 78.5633 21.9354 78.1769 22.1073 77.7102C22.4521 76.774 23.0149 75.5309 23.8849 74.2938C25.609 71.8422 28.5296 69.4122 33.4624 69.4122C38.3952 69.4122 41.3158 71.8422 43.0399 74.2938C43.9098 75.5309 44.4727 76.774 44.8175 77.7102C44.9894 78.1769 45.1057 78.5633 45.1782 78.8292C45.2145 78.9621 45.2396 79.0645 45.2553 79.1314C45.2632 79.1648 45.2686 79.1893 45.2719 79.2043L45.2751 79.2195L45.2754 79.2207L45.4319 80H89.6224L89.735 79.1594L89.7351 79.1583L89.7373 79.1433C89.7387 79.1343 89.7407 79.1214 89.7434 79.105C89.745 79.0953 89.7468 79.0843 89.7489 79.0721C89.76 79.0063 89.7784 78.9052 89.8061 78.7737C89.8615 78.5104 89.9537 78.1272 90.0984 77.6641C90.3888 76.735 90.8853 75.5022 91.7067 74.2756C93.3251 71.8592 96.2318 69.4122 101.538 69.4122C106.843 69.4122 109.75 71.8592 111.368 74.2756C112.19 75.5022 112.686 76.735 112.977 77.6641C113.121 78.1272 113.214 78.5104 113.269 78.7737C113.297 78.9052 113.315 79.0063 113.326 79.0721C113.33 79.0953 113.333 79.1141 113.336 79.1283C113.336 79.1341 113.337 79.1391 113.338 79.1433L113.34 79.1574L113.34 79.1589L113.453 80H130.089C131.697 80 133 78.6947 133 77.0845V13.9155ZM115.097 78.0563C115.032 77.7839 114.945 77.4548 114.829 77.0835C114.499 76.0274 113.932 74.6133 112.98 73.1929C111.053 70.3153 107.578 67.4685 101.538 67.4685C95.4975 67.4685 92.0222 70.3153 90.095 73.1929C89.1437 74.6133 88.5764 76.0274 88.2463 77.0835C88.1303 77.4548 88.0429 77.7839 87.9781 78.0563H82.6527V47.5306H120.87C122.478 47.5306 123.781 46.2253 123.781 44.6151V23.7975C123.781 22.1873 122.478 20.882 120.87 20.882H55.2584C53.6506 20.882 52.3473 22.1873 52.3473 23.7975V78.0563H46.9764C46.894 77.7761 46.7831 77.4306 46.6383 77.0375C46.2519 75.9884 45.618 74.5845 44.6266 73.1747C42.6278 70.3324 39.1664 67.4685 33.4624 67.4685C27.7584 67.4685 24.297 70.3324 22.2982 73.1747C21.3068 74.5845 20.6729 75.9884 20.2865 77.0375C20.1417 77.4306 20.0308 77.7761 19.9484 78.0563H4.91111C4.3752 78.0563 3.94074 77.6212 3.94074 77.0845V68.0004H10.2482C11.8559 68.0004 13.1593 66.6951 13.1593 65.085V60.502C13.1593 58.8918 11.8559 57.5865 10.2482 57.5865H3.94074V47.5306H42.8675C44.4753 47.5306 45.7786 46.2253 45.7786 44.6151V23.0916C45.7786 21.4814 44.4753 20.1761 42.8675 20.1761H15.9352L18.9395 13.5154C19.0965 13.1674 19.4425 12.9437 19.8238 12.9437H130.089C130.625 12.9437 131.059 13.3788 131.059 13.9155V57.5865H124.752C123.144 57.5865 121.841 58.8918 121.841 60.502V65.085C121.841 66.6951 123.144 68.0004 124.752 68.0004H131.059V77.0845C131.059 77.6212 130.625 78.0563 130.089 78.0563H115.097ZM131.059 66.0568H124.752C124.216 66.0568 123.781 65.6217 123.781 65.085V60.502C123.781 59.9653 124.216 59.5302 124.752 59.5302H131.059V66.0568ZM15.0585 22.1198H26.8191V45.587H4.4735L15.0585 22.1198ZM28.7598 45.587V22.1198H42.8675C43.4034 22.1198 43.8379 22.5549 43.8379 23.0916V44.6151C43.8379 45.1518 43.4034 45.587 42.8675 45.587H28.7598ZM3.94074 59.5302H10.2482C10.7841 59.5302 11.2185 59.9653 11.2185 60.502V65.085C11.2185 65.6217 10.7841 66.0568 10.2482 66.0568H3.94074V59.5302ZM54.288 78.0563V23.7975C54.288 23.2608 54.7225 22.8256 55.2584 22.8256H66.5296V78.0563H54.288ZM68.4704 78.0563V22.8256H80.712V78.0563H68.4704ZM82.6527 22.8256H100.567V45.587H82.6527V22.8256ZM102.508 45.587V22.8256H120.87C121.406 22.8256 121.841 23.2608 121.841 23.7975V44.6151C121.841 45.1518 121.406 45.587 120.87 45.587H102.508Z" fill="#00A0E3"/>
</svg>
