<svg width="135" height="90" viewBox="0 0 135 90" fill="none" xmlns="http://www.w3.org/2000/svg">
<path fill-rule="evenodd" clip-rule="evenodd" d="M67 3.79167C44.2413 3.79167 25.7917 22.2413 25.7917 45C25.7917 67.7587 44.2413 86.2083 67 86.2083C89.7587 86.2083 108.208 67.7587 108.208 45C108.208 22.2413 89.7587 3.79167 67 3.79167ZM24 45C24 21.2518 43.2518 2 67 2C90.7482 2 110 21.2518 110 45C110 68.7482 90.7482 88 67 88C43.2518 88 24 68.7482 24 45ZM33.52 35.7296C36.7952 35.0463 39.9014 34.4522 42.8834 33.947C60.1007 31.0296 73.1328 31.081 90.6473 33.9461C93.7686 34.4567 97.0313 35.0565 100.484 35.7443C96.4332 21.056 82.9753 10.2692 67 10.2692C51.03 10.2692 37.5758 21.0488 33.52 35.7296ZM100.955 37.6659C97.719 37.0139 94.6556 36.4392 91.7246 35.942L95.1207 48.7375C97.1453 47.8075 99.3383 46.8985 101.717 45.9923C101.726 45.6627 101.731 45.3319 101.731 45C101.731 42.483 101.463 40.0294 100.955 37.6659ZM101.607 47.9539C99.1703 48.8988 96.9473 49.8444 94.9145 50.8115C89.3746 53.447 85.2641 56.2339 82.0988 59.58C78.9379 62.9213 76.6807 66.8615 74.9041 71.8581C74.1078 74.0978 73.4083 76.5492 72.7674 79.2541C88.2539 76.6657 100.27 63.8293 101.607 47.9539ZM70.866 79.518C71.4512 76.9732 72.0874 74.6273 72.806 72.4538H61.5769C62.2727 74.6424 62.9106 77.0042 63.5167 79.5583C64.6621 79.6724 65.8241 79.7308 67 79.7308C68.3068 79.7308 69.5967 79.6586 70.866 79.518ZM61.616 79.3161C60.9549 76.5924 60.2578 74.1123 59.492 71.8446C57.5813 66.1863 55.25 61.8719 52.006 58.413C48.763 54.9551 44.5577 52.2987 38.8177 50.0342C36.8578 49.261 34.7205 48.5341 32.3834 47.8369C33.6815 63.8968 45.907 76.8717 61.616 79.3161ZM32.2817 45.9388C34.5299 46.5951 36.6112 47.2798 38.5412 48.0074L41.8015 35.9523C39.012 36.4441 36.1058 37.013 33.0461 37.6599C32.5373 40.0253 32.2692 42.4808 32.2692 45C32.2692 45.314 32.2734 45.6269 32.2817 45.9388ZM43.7478 35.6185L40.219 48.6666C45.7613 50.937 49.9872 53.6413 53.3129 57.1873C56.6627 60.7592 59.0526 65.1353 60.9804 70.6622H73.4318C75.242 65.758 77.5602 61.7706 80.7972 58.3487C84.026 54.9355 88.1331 52.123 93.4739 49.5168L89.7858 35.6214C72.9371 32.9097 60.2953 32.8631 43.7478 35.6185ZM31.425 36.7003C35.1834 20.5284 49.6833 8.47756 67 8.47756C84.3167 8.47756 98.8166 20.5284 102.575 36.7003C103.195 39.3675 103.522 42.1461 103.522 45C103.522 45.5561 103.51 46.1093 103.485 46.6594C102.617 66.0604 86.6147 81.5224 67 81.5224C65.5404 81.5224 64.1004 81.4368 62.6848 81.2701C45.0864 79.1981 31.3179 64.6166 30.5146 46.6594C30.49 46.1093 30.4776 45.5561 30.4776 45C30.4776 42.1461 30.8051 39.3675 31.425 36.7003ZM67 35.5317C61.7708 35.5317 57.5317 39.7708 57.5317 45C57.5317 50.2292 61.7708 54.4683 67 54.4683C72.2292 54.4683 76.4683 50.2292 76.4683 45C76.4683 39.7708 72.2292 35.5317 67 35.5317ZM55.7401 45C55.7401 38.7813 60.7813 33.7401 67 33.7401C73.2187 33.7401 78.2599 38.7813 78.2599 45C78.2599 51.2187 73.2187 56.2599 67 56.2599C60.7813 56.2599 55.7401 51.2187 55.7401 45Z" fill="#00A0E3"/>
</svg>
