<svg width="135" height="90" viewBox="0 0 135 90" fill="none" xmlns="http://www.w3.org/2000/svg">
<path opacity="0.18" fill-rule="evenodd" clip-rule="evenodd" d="M67.0195 6.67391C67.0195 4.09258 69.0953 2 71.6559 2H82.5555C85.1161 2 87.1919 4.09258 87.1919 6.67391V23.9686C87.1919 24.5442 86.9288 25.0878 86.4788 25.4421L84.9117 26.6757L85.6419 26.1419C88.7071 23.9013 93 26.1088 93 29.9258V83.3261C93 85.9074 90.9242 88 88.3636 88H46.6364C44.0758 88 42 85.9074 42 83.3261V28.1638C42 25.5824 44.0758 23.4898 46.6364 23.4898H67.0532C67.2876 23.4898 67.5133 23.5793 67.6849 23.7403L73.0462 28.7698C73.2347 28.9467 73.3418 29.1946 73.3418 29.4542V43.608H77.2954C78.3196 43.608 79.1499 44.445 79.1499 45.4776V47.2658C79.1499 48.2984 78.3196 49.1354 77.2954 49.1354H74.2354V55.0388C74.2354 56.0713 73.4051 56.9083 72.3808 56.9083H70.6612V65.0978C70.6612 66.1304 69.8308 66.9674 68.8066 66.9674H67.9805C66.9563 66.9674 66.1259 66.1304 66.1259 65.0978V62.3951H61.7256V76.5286H66.1259V73.8259C66.1259 72.7933 66.9563 71.9563 67.9805 71.9563H75.0615V63.7668C75.0615 62.7342 75.8918 61.8972 76.916 61.8972H79.5293V55.5366C79.5293 54.5041 80.3596 53.6671 81.3838 53.6671H83.997V37.2474H83.6177C82.5934 37.2474 81.7631 36.4104 81.7631 35.3778V29.4542C81.7631 29.331 81.7872 29.2109 81.8323 29.0999L81.3838 29.453V40.8646C81.3838 41.8971 80.5535 42.7342 79.5293 42.7342H75.5757C74.5515 42.7342 73.7212 41.8971 73.7212 40.8646V28.4848L67.649 23.0991C67.2488 22.7442 67.0195 22.2328 67.0195 21.6955V6.67391ZM71.6559 3.86957C70.1195 3.86957 68.874 5.12512 68.874 6.67391V21.6955L75.2609 27.3603C75.461 27.5378 75.5757 27.7935 75.5757 28.0621V40.8646H79.5293V28.9969C79.5293 28.7091 79.6608 28.4373 79.8858 28.2602L85.3374 23.9686V6.67391C85.3374 5.12511 84.0919 3.86957 82.5555 3.86957H71.6559ZM46.6364 25.3594C45.1 25.3594 43.8545 26.615 43.8545 28.1638V83.3261C43.8545 84.8749 45.1 86.1304 46.6364 86.1304H88.3636C89.9 86.1304 91.1455 84.8749 91.1455 83.3261V29.9258C91.1455 27.6356 88.5697 26.3111 86.7306 27.6555L83.6177 29.931V35.3778H83.997C85.0213 35.3778 85.8516 36.2149 85.8516 37.2474V53.6671C85.8516 54.6996 85.0213 55.5366 83.997 55.5366H81.3838V61.8972C81.3838 62.9297 80.5535 63.7668 79.5293 63.7668H76.916V71.9563C76.916 72.9888 76.0857 73.8259 75.0615 73.8259H67.9805V76.5286C67.9805 77.5611 67.1502 78.3982 66.1259 78.3982H61.7256C60.7014 78.3982 59.8711 77.5611 59.8711 76.5286V62.3951C59.8711 61.3626 60.7014 60.5255 61.7256 60.5255H66.1259C67.1502 60.5255 67.9805 61.3626 67.9805 62.3951V65.0978H68.8066V56.9083C68.8066 55.8758 69.6369 55.0388 70.6612 55.0388H72.3808V49.1354C72.3808 48.1029 73.2111 47.2658 74.2354 47.2658H77.2954V45.4776H73.3418C72.3176 45.4776 71.4873 44.6405 71.4873 43.608V29.8612L66.6885 25.3594H46.6364ZM49.1484 38.1822C49.1484 36.6334 50.3939 35.3778 51.9302 35.3778H54.476C56.0124 35.3778 57.2579 36.6334 57.2579 38.1822V40.8443C57.2579 42.3931 56.0124 43.6486 54.476 43.6486H51.9302C50.3939 43.6486 49.1484 42.3931 49.1484 40.8443V38.1822ZM51.9302 37.2474C51.4181 37.2474 51.003 37.6659 51.003 38.1822V40.8443C51.003 41.3605 51.4181 41.7791 51.9302 41.7791H54.476C54.9882 41.7791 55.4033 41.3605 55.4033 40.8443V38.1822C55.4033 37.6659 54.9882 37.2474 54.476 37.2474H51.9302ZM49.1484 50.0702C49.1484 48.5214 50.3939 47.2658 51.9302 47.2658H54.476C56.0124 47.2658 57.2579 48.5214 57.2579 50.0702V52.7323C57.2579 54.2811 56.0124 55.5366 54.476 55.5366H51.9302C50.3939 55.5366 49.1484 54.2811 49.1484 52.7323V50.0702ZM51.9302 49.1354C51.4181 49.1354 51.003 49.5539 51.003 50.0702V52.7323C51.003 53.2485 51.4181 53.6671 51.9302 53.6671H54.476C54.9882 53.6671 55.4033 53.2485 55.4033 52.7323V50.0702C55.4033 49.5539 54.9882 49.1354 54.476 49.1354H51.9302ZM49.1484 59.2148C49.1484 57.666 50.3939 56.4104 51.9302 56.4104H54.476C56.0124 56.4104 57.2579 57.666 57.2579 59.2148V61.8769C57.2579 63.4257 56.0124 64.6812 54.476 64.6812H51.9302C50.3939 64.6812 49.1484 63.4257 49.1484 61.8769V59.2148ZM51.9302 58.28C51.4181 58.28 51.003 58.6985 51.003 59.2148V61.8769C51.003 62.3932 51.4181 62.8117 51.9302 62.8117H54.476C54.9882 62.8117 55.4033 62.3932 55.4033 61.8769V59.2148C55.4033 58.6985 54.9882 58.28 54.476 58.28H51.9302ZM49.1484 68.3594C49.1484 66.8106 50.3939 65.5551 51.9302 65.5551H54.476C56.0124 65.5551 57.2579 66.8106 57.2579 68.3594V71.0215C57.2579 72.5703 56.0124 73.8259 54.476 73.8259H51.9302C50.3939 73.8259 49.1484 72.5703 49.1484 71.0215V68.3594ZM51.9302 67.4246C51.4181 67.4246 51.003 67.8431 51.003 68.3594V71.0215C51.003 71.5378 51.4181 71.9563 51.9302 71.9563H54.476C54.9882 71.9563 55.4033 71.5378 55.4033 71.0215V68.3594C55.4033 67.8431 54.9882 67.4246 54.476 67.4246H51.9302Z" fill="#00A0E3"/>
</svg>
