<svg width="73" height="53" viewBox="0 0 73 53" fill="none" xmlns="http://www.w3.org/2000/svg">
<path fill-rule="evenodd" clip-rule="evenodd" d="M41.0488 0.636719H30.3184L35.6836 8.85777L41.0488 0.636719ZM28.9842 1.2273L18.3945 17.455H30.0745L34.8241 10.1762L28.9842 1.2273Z" fill="white"/>
<path fill-rule="evenodd" clip-rule="evenodd" d="M42.0003 0.636719H30.3203L41.2946 17.455H52.9746L42.0003 0.636719Z" fill="white"/>
<path fill-rule="evenodd" clip-rule="evenodd" d="M47.6094 27.1194L42.2442 18.8965H52.9746L47.6094 27.1194ZM42.385 35.1242L36.545 26.1752L40.9099 19.4871L46.7499 28.436L42.385 35.1242ZM35.6855 27.4937L41.0507 35.7147H30.3203L35.6855 27.4937Z" fill="white"/>
<path fill-rule="evenodd" clip-rule="evenodd" d="M53.9221 18.8965H42.2422L53.2165 35.7147H64.8946L53.9221 18.8965Z" fill="white"/>
<path fill-rule="evenodd" clip-rule="evenodd" d="M23.7617 27.1196L18.3965 18.8967H29.1269L23.7617 27.1196ZM17.0623 19.4873L22.9022 28.4362L18.1526 35.715H6.47263L17.0623 19.4873Z" fill="white"/>
<path fill-rule="evenodd" clip-rule="evenodd" d="M30.0745 18.8965H18.3945L29.3689 35.7147H41.0488L30.0745 18.8965Z" fill="white"/>
<path fill-rule="evenodd" clip-rule="evenodd" d="M5.07397 37.4922H66.0277L71.0626 42.5984V42.6003H0.0390625V42.5984L5.07397 37.4922Z" fill="white"/>
<path d="M4.72715 47.198C4.72715 48.6067 3.99902 49.3101 2.54091 49.3101H1.60637V51.3751H0V45.1499H2.46022C3.18646 45.1499 3.74569 45.3267 4.13789 45.6802C4.53198 46.0338 4.72715 46.5397 4.72715 47.198ZM3.04759 47.2281C3.04759 46.9498 2.97253 46.7504 2.81865 46.6338C2.66664 46.5134 2.42269 46.4532 2.08677 46.4532H1.60637V47.9973H2.10179C2.43957 47.9973 2.68165 47.939 2.82803 47.8224C2.9744 47.7077 3.04759 47.5083 3.04759 47.2281ZM10.888 45.1499L8.09752 51.3751H6.3185L7.15922 49.658L4.82661 45.1499H6.79328L8.05623 47.8751L9.09399 45.1499H10.888ZM15.527 51.2491C14.9696 51.4428 14.4892 51.5387 14.0876 51.5387C13.1512 51.5387 12.363 51.2246 11.7231 50.5946C11.0832 49.9646 10.7642 49.1859 10.7642 48.2625C10.7642 47.3541 11.0888 46.5811 11.7381 45.9417C12.3874 45.3041 13.1718 44.9844 14.0951 44.9844C14.5736 44.9844 15.0522 45.0897 15.527 45.3003V47.2469C15.1573 46.7842 14.6806 46.5529 14.1026 46.5529C13.6278 46.5529 13.2319 46.7165 12.9166 47.0381C12.6032 47.3635 12.4456 47.7697 12.4456 48.2625C12.4456 48.7703 12.5995 49.1803 12.9091 49.4981C13.2187 49.8122 13.6203 49.9702 14.1101 49.9702C14.6731 49.9702 15.146 49.7502 15.527 49.3101V51.2491ZM22.4779 51.3751H20.7477L20.3423 50.1865H18.0378L17.6363 51.3751H15.906L18.2518 45.1499H20.1284L22.4779 51.3751ZM19.9238 48.9471L19.192 46.7918L18.4563 48.9471H19.9238ZM27.6685 49.6016C27.6685 50.1714 27.4696 50.6078 27.0737 50.9143C26.6758 51.2228 26.1166 51.3751 25.3922 51.3751H22.932V45.1499H25.229C26.4656 45.1499 27.083 45.6915 27.083 46.7748C27.083 47.3898 26.856 47.8149 26.3981 48.0481C27.2444 48.1929 27.6685 48.7101 27.6685 49.6016ZM25.6005 46.993C25.6005 46.5886 25.3247 46.3874 24.773 46.3874H24.5384V47.5929H24.7561C25.319 47.5929 25.6005 47.3917 25.6005 46.993ZM26.0359 49.4793C26.0359 49.0317 25.7394 48.8079 25.1426 48.8079H24.5384V50.1357H25.0038C25.6925 50.1357 26.0359 49.9175 26.0359 49.4793ZM32.3131 46.5209H30.9695V51.3751H29.3631V46.5209H28.0288V45.1499H32.3131V46.5209ZM39.1833 48.2625C39.1833 49.2029 38.8568 49.9852 38.2038 50.6059C37.5507 51.2284 36.7325 51.5387 35.7473 51.5387C34.764 51.5387 33.9458 51.2284 33.2965 50.6059C32.6453 49.9852 32.3206 49.2029 32.3206 48.2625C32.3206 47.3221 32.6453 46.5397 33.2965 45.9172C33.9458 45.2966 34.764 44.9844 35.7473 44.9844C36.7325 44.9844 37.5507 45.2966 38.2038 45.9172C38.8568 46.5397 39.1833 47.3221 39.1833 48.2625ZM37.5019 48.2625C37.5019 47.7829 37.333 47.3786 36.9952 47.0475C36.6556 46.7184 36.2427 46.5529 35.7473 46.5529C35.2556 46.5529 34.8428 46.7184 34.5069 47.0475C34.1691 47.3786 34.0021 47.7829 34.0021 48.2625C34.0021 48.7402 34.1691 49.1464 34.5069 49.4756C34.8428 49.8066 35.2556 49.9702 35.7473 49.9702C36.2427 49.9702 36.6556 49.8066 36.9952 49.4756C37.333 49.1464 37.5019 48.7402 37.5019 48.2625ZM45.6576 52.6371H44.2483V51.3751H40.7315V52.6371H39.3222V50.0116C39.705 50.0116 39.9753 49.7953 40.131 49.359C40.2511 49.0261 40.3112 48.5258 40.3112 47.8581V45.1499H45.0158V50.0116H45.6576V52.6371ZM43.4076 50.0116V46.5115H41.8181V48.4995C41.8181 49.2687 41.6229 49.7727 41.2345 50.0116H43.4076ZM49.8762 51.3751H46.3407V45.1499H49.8762V46.5209H47.9471V47.561H49.7767V48.9396H47.9471V50.004H49.8762V51.3751ZM54.6765 46.5209H53.3329V51.3751H51.7265V46.5209H50.3923V45.1499H54.6765V46.5209ZM60.9275 51.3751H59.1973L58.79 50.1865H56.4874L56.084 51.3751H54.3556L56.6995 45.1499H58.578L60.9275 51.3751ZM58.3734 48.9471L57.6415 46.7918L56.904 48.9471H58.3734ZM66.4465 51.3751H64.8327V46.5209H63.3727V49.1145C63.3727 49.8423 63.2732 50.3783 63.0724 50.7225C62.7815 51.2115 62.2486 51.4579 61.4717 51.4579C61.2033 51.4579 60.9725 51.4221 60.7792 51.3525L60.8599 49.9307C61.0176 50.0022 61.1808 50.0379 61.3459 50.0379C61.5223 50.0379 61.6425 49.974 61.7044 49.848C61.7738 49.7031 61.8095 49.4135 61.8095 48.9809V45.1499H66.4465V51.3751ZM72.2715 49.421C72.2715 50.2391 71.9318 50.8052 71.2544 51.1175C70.8866 51.2886 70.4343 51.3751 69.8995 51.3751H67.5106V45.1499H69.1169V47.4782H69.9014C70.4193 47.4782 70.8734 47.5704 71.2619 47.7566C71.9356 48.0744 72.2715 48.6311 72.2715 49.421ZM70.6651 49.4191C70.6651 48.9339 70.3517 48.6913 69.7268 48.6913H69.1169V50.1357H69.7268C70.3517 50.1357 70.6651 49.8969 70.6651 49.4191Z" fill="white"/>
</svg>
