<svg width="21" height="22" viewBox="0 0 21 22" fill="none" xmlns="http://www.w3.org/2000/svg">
<path d="M20.8128 15.5252C20.7564 15.4307 20.4072 14.672 18.7271 13.1126C16.9682 11.4797 17.2045 11.7449 19.323 8.92149C20.6133 7.20199 21.1292 6.15191 20.9677 5.703C20.8141 5.2751 19.8651 5.38798 19.8651 5.38798L16.7096 5.40636C16.7096 5.40636 16.476 5.37485 16.3014 5.47855C16.1321 5.58093 16.0232 5.8172 16.0232 5.8172C16.0232 5.8172 15.5231 7.14817 14.8563 8.27963C13.4505 10.6672 12.8874 10.7933 12.6577 10.6449C12.1234 10.2997 12.2573 9.2562 12.2573 8.5159C12.2573 6.20179 12.6078 5.23703 11.5735 4.98764C11.2296 4.90494 10.9775 4.84982 10.0994 4.84063C8.9732 4.82881 8.01894 4.84456 7.47947 5.1084C7.11982 5.28428 6.84286 5.67675 7.01218 5.69907C7.22089 5.72663 7.69342 5.82639 7.94413 6.16766C8.26834 6.60738 8.25653 7.59708 8.25653 7.59708C8.25653 7.59708 8.44291 10.3207 7.82206 10.6594C7.39546 10.8917 6.81136 10.4179 5.55783 8.25075C4.91597 7.14161 4.43031 5.91433 4.43031 5.91433C4.43031 5.91433 4.33711 5.68594 4.17041 5.56387C3.96827 5.41554 3.68475 5.36829 3.68475 5.36829L0.684156 5.38667C0.684156 5.38667 0.233935 5.39979 0.0685481 5.59537C-0.0784627 5.76995 0.0567347 6.1296 0.0567347 6.1296C0.0567347 6.1296 2.40628 11.6254 5.0656 14.3963C7.50572 16.9362 10.2753 16.7695 10.2753 16.7695H11.5301C11.5301 16.7695 11.9095 16.7275 12.1024 16.5188C12.2809 16.3272 12.2744 15.9675 12.2744 15.9675C12.2744 15.9675 12.2494 14.2835 13.0318 14.0354C13.8022 13.7912 14.7919 15.663 15.8407 16.3836C16.6335 16.9283 17.236 16.8089 17.236 16.8089L20.041 16.7695C20.041 16.7695 21.5085 16.6789 20.8128 15.5252Z" fill="#FAFAFA"/>
</svg>
